<svg width="76" height="76" viewBox="0 0 76 76" fill="none" xmlns="http://www.w3.org/2000/svg">
<g filter="url(#filter0_d_27_725)">
<rect x="4" width="68" height="68" rx="34" fill="#46C7F4" shape-rendering="crispEdges"/>
<path d="M50.75 35.0625V40.375H25.25V23.375H35.875V21.25H25.25C24.6864 21.25 24.1459 21.4739 23.7474 21.8724C23.3489 22.2709 23.125 22.8114 23.125 23.375V40.375C23.125 40.9386 23.3489 41.4791 23.7474 41.8776C24.1459 42.2761 24.6864 42.5 25.25 42.5H33.75V46.75H29.5V48.875H46.5V46.75H42.25V42.5H50.75C51.3136 42.5 51.8541 42.2761 52.2526 41.8776C52.6511 41.4791 52.875 40.9386 52.875 40.375V35.0625H50.75ZM40.125 46.75H35.875V42.5H40.125V46.75Z" fill="black" fill-opacity="0.8"/>
<path d="M52.875 27.625V25.5H50.6427C50.5048 24.8351 50.2408 24.2029 49.8649 23.6374L51.4481 22.0543L49.9457 20.5519L48.3626 22.1351C47.7971 21.7592 47.1649 21.4952 46.5 21.3573V19.125H44.375V21.3573C43.7101 21.4952 43.0779 21.7592 42.5124 22.1351L40.9293 20.5519L39.4269 22.0543L41.0101 23.6374C40.6342 24.2029 40.3702 24.8351 40.2323 25.5H38V27.625H40.2323C40.3702 28.2899 40.6342 28.9221 41.0101 29.4876L39.4269 31.0707L40.9293 32.5731L42.5124 30.9899C43.0779 31.3658 43.7101 31.6298 44.375 31.7677V34H46.5V31.7677C47.1649 31.6298 47.7971 31.3658 48.3626 30.9899L49.9457 32.5731L51.4481 31.0707L49.8649 29.4876C50.2408 28.9221 50.5048 28.2899 50.6427 27.625H52.875ZM45.4375 29.75C44.8071 29.75 44.1908 29.5631 43.6666 29.2128C43.1424 28.8626 42.7339 28.3647 42.4926 27.7823C42.2514 27.1999 42.1883 26.559 42.3112 25.9406C42.4342 25.3223 42.7378 24.7544 43.1836 24.3086C43.6294 23.8628 44.1973 23.5592 44.8156 23.4362C45.434 23.3133 46.0749 23.3764 46.6573 23.6176C47.2397 23.8589 47.7376 24.2674 48.0878 24.7916C48.4381 25.3158 48.625 25.9321 48.625 26.5625C48.6242 27.4076 48.2881 28.2179 47.6905 28.8155C47.0929 29.4131 46.2826 29.7492 45.4375 29.75Z" fill="black" fill-opacity="0.8"/>
</g>
<defs>
<filter id="filter0_d_27_725" x="0" y="0" width="76" height="76" filterUnits="userSpaceOnUse" color-interpolation-filters="sRGB">
<feFlood flood-opacity="0" result="BackgroundImageFix"/>
<feColorMatrix in="SourceAlpha" type="matrix" values="0 0 0 0 0 0 0 0 0 0 0 0 0 0 0 0 0 0 127 0" result="hardAlpha"/>
<feOffset dy="4"/>
<feGaussianBlur stdDeviation="2"/>
<feComposite in2="hardAlpha" operator="out"/>
<feColorMatrix type="matrix" values="0 0 0 0 0 0 0 0 0 0 0 0 0 0 0 0 0 0 0.25 0"/>
<feBlend mode="normal" in2="BackgroundImageFix" result="effect1_dropShadow_27_725"/>
<feBlend mode="normal" in="SourceGraphic" in2="effect1_dropShadow_27_725" result="shape"/>
</filter>
</defs>
</svg>
