<svg width="76" height="76" viewBox="0 0 76 76" fill="none" xmlns="http://www.w3.org/2000/svg">
<g filter="url(#filter0_d_27_697)">
<rect x="4" width="68" height="68" rx="34" fill="#46C7F4"/>
<path d="M45.6751 37.6706C45.8878 37.88 46.0091 38.165 46.0126 38.4635C46.0161 38.762 45.9015 39.0497 45.6937 39.2641C45.486 39.4784 45.2019 39.6019 44.9035 39.6077C44.605 39.6135 44.3164 39.5011 44.1004 39.295C44.002 39.1999 43.8993 39.1093 43.7927 39.0235C43.2741 38.6232 42.7003 38.3001 42.0891 38.0642C40.816 37.5785 39.4629 37.3368 38.1003 37.3516C35.7881 37.3516 33.6863 37.9964 32.408 39.0235C32.2978 39.114 32.1953 39.2045 32.1003 39.295C31.8843 39.5011 31.5957 39.6135 31.2972 39.6077C30.9988 39.6019 30.7147 39.4784 30.507 39.2641C30.2992 39.0497 30.1846 38.762 30.188 38.4635C30.1915 38.165 30.3129 37.88 30.5256 37.6706C30.6719 37.5288 30.8272 37.3915 30.9916 37.2588C32.6975 35.8877 35.3017 35.0891 38.1003 35.0891C39.8311 35.0891 41.494 35.3922 42.9239 35.9601C43.795 36.3063 44.5665 36.7429 45.209 37.2588C45.3734 37.393 45.5288 37.5303 45.6751 37.6706ZM51.3494 31.7859C51.4631 31.8894 51.5546 32.0151 51.6181 32.1552C51.6816 32.2953 51.7159 32.4469 51.7188 32.6007C51.7218 32.7545 51.6933 32.9072 51.6352 33.0497C51.5771 33.1921 51.4906 33.3212 51.3809 33.429C51.2712 33.5368 51.1406 33.6212 50.9973 33.6769C50.8539 33.7325 50.7006 33.7584 50.5469 33.7528C50.3932 33.7473 50.2422 33.7104 50.1032 33.6445C49.9642 33.5786 49.8401 33.4851 49.7385 33.3696C49.4862 33.1159 49.2219 32.8743 48.9466 32.6456C48.6571 32.406 48.3558 32.181 48.0439 31.9714C47.0233 31.2873 45.9222 30.7318 44.7656 30.3175C43.9352 30.0151 43.0837 29.7738 42.218 29.5958C41.3186 29.4123 40.4077 29.2898 39.4918 29.2293C38.1037 29.1376 36.71 29.1839 35.3311 29.3673C34.436 29.4908 33.5502 29.6737 32.6795 29.9148C31.8518 30.1509 31.042 30.4458 30.2563 30.7972C29.526 31.1315 28.8239 31.5242 28.1568 31.9714C27.84 32.1871 27.5391 32.4118 27.254 32.6456C26.9735 32.8794 26.7095 33.1207 26.4622 33.3696C26.2483 33.5643 25.968 33.6697 25.6789 33.6642C25.3898 33.6586 25.1137 33.5426 24.9075 33.3398C24.7013 33.1371 24.5805 32.863 24.5701 32.574C24.5596 32.285 24.6603 32.003 24.8513 31.7859C25.1499 31.4812 25.4697 31.1871 25.8106 30.9035C26.15 30.623 26.5074 30.3552 26.883 30.1003C27.6528 29.5756 28.4675 29.1198 29.3174 28.7383C30.2052 28.3306 31.1245 27.9954 32.0663 27.736C33.0377 27.4592 34.0284 27.255 35.0302 27.1252C36.0477 26.9877 37.0735 26.9197 38.1003 26.9215C39.1272 26.9197 40.1529 26.9877 41.1705 27.1252C42.171 27.2624 43.1611 27.4665 44.1344 27.736C45.0735 28.0038 45.9922 28.3387 46.8833 28.7383C47.7303 29.1256 48.5444 29.5811 49.3177 30.1003C49.6933 30.3567 50.0507 30.6245 50.3901 30.9035C50.731 31.1871 51.0507 31.4812 51.3494 31.7859Z" fill="black" fill-opacity="0.8"/>
<path d="M55.913 26.1636C56.0121 26.2745 56.0884 26.4037 56.1376 26.544C56.1867 26.6843 56.2077 26.8329 56.1994 26.9814C56.1911 27.1298 56.1537 27.2751 56.0892 27.4091C56.0247 27.543 55.9345 27.663 55.8237 27.7621C55.7129 27.8612 55.5836 27.9375 55.4433 27.9866C55.303 28.0357 55.1544 28.0567 55.0059 28.0484C54.8575 28.0401 54.7122 28.0027 54.5782 27.9382C54.4443 27.8738 54.3243 27.7835 54.2252 27.6727C53.8731 27.2804 53.5016 26.9058 53.1121 26.5505C52.7079 26.1848 52.2874 25.8375 51.8519 25.5098C50.9312 24.83 49.9549 24.2291 48.9333 23.7134C47.8539 23.1719 46.7307 22.7223 45.5758 22.3695C44.3798 21.9984 43.1566 21.7215 41.9174 21.5414C40.6538 21.3543 39.378 21.2612 38.1006 21.2631C36.8234 21.266 35.5479 21.359 34.2838 21.5414C33.0452 21.725 31.8223 22.0018 30.6254 22.3695C29.4728 22.728 28.3508 23.1781 27.2701 23.7156C26.7507 23.9758 26.2427 24.2582 25.7475 24.5618C25.2669 24.8566 24.8003 25.1737 24.3493 25.512C23.9058 25.8439 23.4858 26.1908 23.0891 26.5528C22.6924 26.9133 22.3213 27.2866 21.9759 27.6727C21.8768 27.7835 21.7569 27.8738 21.6229 27.9382C21.489 28.0027 21.3437 28.0401 21.1952 28.0484C21.0468 28.0567 20.8982 28.0357 20.7579 27.9866C20.6176 27.9375 20.4883 27.8612 20.3775 27.7621C20.2667 27.663 20.1765 27.543 20.112 27.4091C20.0475 27.2751 20.0101 27.1298 20.0018 26.9814C19.9935 26.8329 20.0145 26.6843 20.0636 26.544C20.1128 26.4037 20.189 26.2745 20.2881 26.1636C20.6863 25.7202 21.1117 25.2918 21.5642 24.8786C22.0167 24.4653 22.4933 24.0724 22.994 23.6998C23.4948 23.3242 24.0182 22.969 24.5642 22.6342C25.6766 21.9499 26.8461 21.3632 28.0597 20.8808C29.3139 20.3767 30.607 19.9757 31.9263 19.6817C33.2724 19.3758 34.6399 19.1731 36.0168 19.0753C38.0959 18.9245 40.1851 19.0004 42.2477 19.3016C43.6013 19.5028 44.9377 19.8061 46.2455 20.2088C47.5162 20.6038 48.7533 21.1002 49.9446 21.693C50.5284 21.9856 51.0932 22.2993 51.6392 22.6342C52.1822 22.969 52.7049 23.3235 53.2071 23.6975C53.7094 24.0731 54.186 24.4668 54.637 24.8786C55.0895 25.2918 55.5148 25.7202 55.913 26.1636ZM42.0599 45.8358C42.0599 46.3558 41.9575 46.8707 41.7585 47.351C41.5596 47.8314 41.2679 48.2679 40.9003 48.6355C40.5326 49.0032 40.0961 49.2948 39.6158 49.4938C39.1354 49.6928 38.6205 49.7952 38.1006 49.7952C37.5806 49.7952 37.0658 49.6928 36.5854 49.4938C36.105 49.2948 35.6686 49.0032 35.3009 48.6355C34.9333 48.2679 34.6416 47.8314 34.4426 47.351C34.2437 46.8707 34.1413 46.3558 34.1413 45.8358C34.1413 44.7858 34.5584 43.7787 35.3009 43.0362C36.0434 42.2937 37.0505 41.8765 38.1006 41.8765C39.1507 41.8765 40.1577 42.2937 40.9003 43.0362C41.6428 43.7787 42.0599 44.7858 42.0599 45.8358Z" fill="black" fill-opacity="0.8"/>
</g>
<defs>
<filter id="filter0_d_27_697" x="0" y="0" width="76" height="76" filterUnits="userSpaceOnUse" color-interpolation-filters="sRGB">
<feFlood flood-opacity="0" result="BackgroundImageFix"/>
<feColorMatrix in="SourceAlpha" type="matrix" values="0 0 0 0 0 0 0 0 0 0 0 0 0 0 0 0 0 0 127 0" result="hardAlpha"/>
<feOffset dy="4"/>
<feGaussianBlur stdDeviation="2"/>
<feComposite in2="hardAlpha" operator="out"/>
<feColorMatrix type="matrix" values="0 0 0 0 0 0 0 0 0 0 0 0 0 0 0 0 0 0 0.25 0"/>
<feBlend mode="normal" in2="BackgroundImageFix" result="effect1_dropShadow_27_697"/>
<feBlend mode="normal" in="SourceGraphic" in2="effect1_dropShadow_27_697" result="shape"/>
</filter>
</defs>
</svg>
