<svg width="76" height="76" viewBox="0 0 76 76" fill="none" xmlns="http://www.w3.org/2000/svg">
<g filter="url(#filter0_d_27_724)">
<rect x="4" width="68" height="68" rx="34" fill="#46C7F4" shape-rendering="crispEdges"/>
<path d="M55.0847 33.1864H51.0836C50.8585 30.3839 49.5042 27.7475 47.2692 25.7607C45.0341 23.774 42.0681 22.5702 38.9153 22.3702V18.8136C38.9153 18.5978 38.8188 18.3909 38.6472 18.2383C38.4755 18.0857 38.2427 18 38 18C37.7573 18 37.5245 18.0857 37.3528 18.2383C37.1812 18.3909 37.0847 18.5978 37.0847 18.8136V22.3702C33.9319 22.5702 30.9659 23.774 28.7308 25.7607C26.4958 27.7475 25.1415 30.3839 24.9164 33.1864H20.9153C20.6725 33.1864 20.4397 33.2722 20.2681 33.4247C20.0964 33.5773 20 33.7842 20 34C20 34.2158 20.0964 34.4227 20.2681 34.5753C20.4397 34.7278 20.6725 34.8136 20.9153 34.8136H24.9164C25.1415 37.6161 26.4958 40.2525 28.7308 42.2393C30.9659 44.226 33.9319 45.4298 37.0847 45.6298V49.1864C37.0847 49.4022 37.1812 49.6091 37.3528 49.7617C37.5245 49.9143 37.7573 50 38 50C38.2427 50 38.4755 49.9143 38.6472 49.7617C38.8188 49.6091 38.9153 49.4022 38.9153 49.1864V45.6298C42.0681 45.4298 45.0341 44.226 47.2692 42.2393C49.5042 40.2525 50.8585 37.6161 51.0836 34.8136H55.0847C55.3275 34.8136 55.5603 34.7278 55.7319 34.5753C55.9036 34.4227 56 34.2158 56 34C56 33.7842 55.9036 33.5773 55.7319 33.4247C55.5603 33.2722 55.3275 33.1864 55.0847 33.1864ZM38 44.0339C35.7674 44.0339 33.585 43.4454 31.7286 42.3429C29.8723 41.2403 28.4255 39.6733 27.5711 37.8398C26.7168 36.0064 26.4932 33.9889 26.9288 32.0425C27.3643 30.0961 28.4394 28.3082 30.0181 26.905C31.5968 25.5017 33.6081 24.5461 35.7978 24.1589C37.9875 23.7717 40.2571 23.9704 42.3198 24.7299C44.3824 25.4893 46.1454 26.7754 47.3857 28.4255C48.6261 30.0755 49.2881 32.0155 49.2881 34C49.2845 36.6602 48.094 39.2104 45.9779 41.0915C43.8618 42.9725 40.9927 44.0307 38 44.0339ZM38 28.8475C36.8535 28.8475 35.7328 29.1496 34.7796 29.7158C33.8263 30.282 33.0834 31.0867 32.6446 32.0282C32.2059 32.9697 32.0911 34.0057 32.3148 35.0052C32.5384 36.0047 33.0905 36.9228 33.9012 37.6434C34.7118 38.364 35.7447 38.8547 36.8691 39.0535C37.9936 39.2523 39.1591 39.1503 40.2183 38.7603C41.2775 38.3703 42.1828 37.7099 42.8197 36.8626C43.4566 36.0153 43.7966 35.0191 43.7966 34C43.7966 32.6335 43.1859 31.3229 42.0988 30.3566C41.0117 29.3903 39.5374 28.8475 38 28.8475ZM38 37.5254C37.2156 37.5254 36.4488 37.3187 35.7966 36.9313C35.1443 36.5439 34.636 35.9933 34.3358 35.3491C34.0356 34.7049 33.9571 33.9961 34.1101 33.3122C34.2631 32.6284 34.6409 32.0002 35.1955 31.5071C35.7502 31.0141 36.4569 30.6783 37.2262 30.5423C37.9956 30.4063 38.7931 30.4761 39.5178 30.7429C40.2425 31.0098 40.8619 31.4616 41.2977 32.0414C41.7335 32.6211 41.9661 33.3027 41.9661 34C41.9661 34.935 41.5482 35.8317 40.8045 36.4929C40.0607 37.154 39.0519 37.5254 38 37.5254Z" fill="black"/>
</g>
<defs>
<filter id="filter0_d_27_724" x="0" y="0" width="76" height="76" filterUnits="userSpaceOnUse" color-interpolation-filters="sRGB">
<feFlood flood-opacity="0" result="BackgroundImageFix"/>
<feColorMatrix in="SourceAlpha" type="matrix" values="0 0 0 0 0 0 0 0 0 0 0 0 0 0 0 0 0 0 127 0" result="hardAlpha"/>
<feOffset dy="4"/>
<feGaussianBlur stdDeviation="2"/>
<feComposite in2="hardAlpha" operator="out"/>
<feColorMatrix type="matrix" values="0 0 0 0 0 0 0 0 0 0 0 0 0 0 0 0 0 0 0.25 0"/>
<feBlend mode="normal" in2="BackgroundImageFix" result="effect1_dropShadow_27_724"/>
<feBlend mode="normal" in="SourceGraphic" in2="effect1_dropShadow_27_724" result="shape"/>
</filter>
</defs>
</svg>
