<svg width="76" height="76" viewBox="0 0 76 76" fill="none" xmlns="http://www.w3.org/2000/svg">
<g filter="url(#filter0_d_27_726)">
<rect x="4" width="68" height="68" rx="34" fill="#46C7F4" shape-rendering="crispEdges"/>
<path d="M43.5815 21.3346C43.6213 21.2052 43.6352 21.0691 43.6224 20.9343C43.6097 20.7994 43.5705 20.6684 43.5071 20.5487C43.4437 20.429 43.3574 20.323 43.253 20.2366C43.1486 20.1503 43.0282 20.0854 42.8988 20.0456C42.7693 20.0058 42.6333 19.9918 42.4984 20.0046C42.3636 20.0173 42.2326 20.0565 42.1129 20.1199C41.9932 20.1833 41.8871 20.2697 41.8008 20.3741C41.7145 20.4784 41.6495 20.5988 41.6097 20.7283L33.3597 47.5408C33.2793 47.8022 33.3061 48.0849 33.4341 48.3267C33.5621 48.5684 33.7809 48.7494 34.0424 48.8298C34.3039 48.9102 34.5866 48.8835 34.8283 48.7554C35.0701 48.6274 35.2511 48.4086 35.3315 48.1471L43.5815 21.3346ZM31.982 26.4888C32.078 26.5846 32.1542 26.6984 32.2062 26.8237C32.2582 26.949 32.2849 27.0833 32.2849 27.2189C32.2849 27.3546 32.2582 27.4889 32.2062 27.6142C32.1542 27.7395 32.078 27.8533 31.982 27.9491L25.4913 34.4377L31.982 40.9263C32.1756 41.12 32.2844 41.3826 32.2844 41.6564C32.2844 41.9303 32.1756 42.1929 31.982 42.3866C31.7883 42.5802 31.5257 42.689 31.2518 42.689C30.978 42.689 30.7154 42.5802 30.5217 42.3866L23.303 35.1678C23.2069 35.072 23.1307 34.9582 23.0787 34.8329C23.0268 34.7076 23 34.5733 23 34.4377C23 34.302 23.0268 34.1677 23.0787 34.0424C23.1307 33.9172 23.2069 33.8034 23.303 33.7076L30.5217 26.4888C30.6175 26.3928 30.7313 26.3166 30.8566 26.2646C30.9819 26.2126 31.1162 26.1858 31.2518 26.1858C31.3875 26.1858 31.5218 26.2126 31.6471 26.2646C31.7724 26.3166 31.8862 26.3928 31.982 26.4888ZM44.9592 26.4888C44.8632 26.5846 44.787 26.6984 44.735 26.8237C44.683 26.949 44.6562 27.0833 44.6562 27.2189C44.6562 27.3546 44.683 27.4889 44.735 27.6142C44.787 27.7395 44.8632 27.8533 44.9592 27.9491L51.4499 34.4377L44.9592 40.9263C44.8633 41.0222 44.7873 41.136 44.7354 41.2613C44.6835 41.3866 44.6568 41.5208 44.6568 41.6564C44.6568 41.792 44.6835 41.9263 44.7354 42.0516C44.7873 42.1769 44.8633 42.2907 44.9592 42.3866C45.0551 42.4824 45.1689 42.5585 45.2942 42.6104C45.4195 42.6623 45.5537 42.689 45.6893 42.689C45.8249 42.689 45.9592 42.6623 46.0845 42.6104C46.2098 42.5585 46.3236 42.4824 46.4195 42.3866L53.6382 35.1678C53.7343 35.072 53.8104 34.9582 53.8624 34.8329C53.9144 34.7076 53.9412 34.5733 53.9412 34.4377C53.9412 34.302 53.9144 34.1677 53.8624 34.0424C53.8104 33.9172 53.7343 33.8034 53.6382 33.7076L46.4195 26.4888C46.3237 26.3928 46.2099 26.3166 46.0846 26.2646C45.9593 26.2126 45.825 26.1858 45.6893 26.1858C45.5537 26.1858 45.4194 26.2126 45.2941 26.2646C45.1688 26.3166 45.055 26.3928 44.9592 26.4888Z" fill="black"/>
</g>
<defs>
<filter id="filter0_d_27_726" x="0" y="0" width="76" height="76" filterUnits="userSpaceOnUse" color-interpolation-filters="sRGB">
<feFlood flood-opacity="0" result="BackgroundImageFix"/>
<feColorMatrix in="SourceAlpha" type="matrix" values="0 0 0 0 0 0 0 0 0 0 0 0 0 0 0 0 0 0 127 0" result="hardAlpha"/>
<feOffset dy="4"/>
<feGaussianBlur stdDeviation="2"/>
<feComposite in2="hardAlpha" operator="out"/>
<feColorMatrix type="matrix" values="0 0 0 0 0 0 0 0 0 0 0 0 0 0 0 0 0 0 0.25 0"/>
<feBlend mode="normal" in2="BackgroundImageFix" result="effect1_dropShadow_27_726"/>
<feBlend mode="normal" in="SourceGraphic" in2="effect1_dropShadow_27_726" result="shape"/>
</filter>
</defs>
</svg>
