<svg width="23" height="23" viewBox="0 0 23 23" fill="none" xmlns="http://www.w3.org/2000/svg">
<path d="M11.25 0C9.77263 0 8.30972 0.29099 6.94481 0.856355C5.5799 1.42172 4.33971 2.25039 3.29505 3.29505C1.18526 5.40483 0 8.26631 0 11.25C0 14.2337 1.18526 17.0952 3.29505 19.205C4.33971 20.2496 5.5799 21.0783 6.94481 21.6436C8.30972 22.209 9.77263 22.5 11.25 22.5C14.2337 22.5 17.0952 21.3147 19.205 19.205C21.3147 17.0952 22.5 14.2337 22.5 11.25C22.5 9.77263 22.209 8.30972 21.6436 6.94481C21.0783 5.5799 20.2496 4.33971 19.205 3.29505C18.1603 2.25039 16.9201 1.42172 15.5552 0.856355C14.1903 0.29099 12.7274 0 11.25 0ZM15.975 15.975L10.125 12.375V5.625H11.8125V11.475L16.875 14.5125L15.975 15.975Z" fill="#46C7F4"/>
</svg>
