<?xml version="1.0" encoding="utf-8"?>
<!-- Generator: Adobe Illustrator 24.2.0, SVG Export Plug-In . SVG Version: 6.00 Build 0)  -->
<svg version="1.1" id="Layer_1" xmlns="http://www.w3.org/2000/svg" xmlns:xlink="http://www.w3.org/1999/xlink" x="0px" y="0px"
	 viewBox="0 0 189 66" style="enable-background:new 0 0 189 66;" xml:space="preserve">
<style type="text/css">
	.st0{clip-path:url(#SVGID_2_);}
	.st1{fill-rule:evenodd;clip-rule:evenodd;fill:#9EA45D;}
	.st2{fill-rule:evenodd;clip-rule:evenodd;fill:#66705B;}
	.st3{fill-rule:evenodd;clip-rule:evenodd;fill:#5F725A;}
	.st4{fill-rule:evenodd;clip-rule:evenodd;fill:#5E6E59;}
	.st5{fill-rule:evenodd;clip-rule:evenodd;fill:#4C5951;}
	.st6{fill-rule:evenodd;clip-rule:evenodd;fill:#45514B;}
	.st7{fill-rule:evenodd;clip-rule:evenodd;fill:#7E8C60;}
	.st8{fill-rule:evenodd;clip-rule:evenodd;fill:#48524B;}
	.st9{fill-rule:evenodd;clip-rule:evenodd;fill:#556858;}
	.st10{fill-rule:evenodd;clip-rule:evenodd;fill:#94A162;}
	.st11{fill-rule:evenodd;clip-rule:evenodd;fill:#88905F;}
	.st12{fill-rule:evenodd;clip-rule:evenodd;fill:#546356;}
	.st13{fill-rule:evenodd;clip-rule:evenodd;fill:#647A5C;}
	.st14{fill-rule:evenodd;clip-rule:evenodd;fill:#A0A766;}
	.st15{fill-rule:evenodd;clip-rule:evenodd;fill:#64775C;}
	.st16{fill-rule:evenodd;clip-rule:evenodd;fill:#717B5E;}
	.st17{fill-rule:evenodd;clip-rule:evenodd;fill:#576555;}
	.st18{fill-rule:evenodd;clip-rule:evenodd;fill:#596958;}
	.st19{fill-rule:evenodd;clip-rule:evenodd;fill:#63735A;}
	.st20{fill-rule:evenodd;clip-rule:evenodd;fill:#525F54;}
	.st21{fill-rule:evenodd;clip-rule:evenodd;fill:#939B5F;}
	.st22{fill-rule:evenodd;clip-rule:evenodd;fill:#68785C;}
	.st23{fill-rule:evenodd;clip-rule:evenodd;fill:#5A6D59;}
	.st24{fill-rule:evenodd;clip-rule:evenodd;fill:#9FA75A;}
	.st25{fill-rule:evenodd;clip-rule:evenodd;fill:#A3AD59;}
	.st26{fill-rule:evenodd;clip-rule:evenodd;fill:#697C5C;}
	.st27{fill:#00793A;}
	.st28{fill-rule:evenodd;clip-rule:evenodd;fill:#00793A;}
</style>
<g>
	<defs>
		<rect id="SVGID_1_" width="189" height="66"/>
	</defs>
	<clipPath id="SVGID_2_">
		<use xlink:href="#SVGID_1_"  style="overflow:visible;"/>
	</clipPath>
	<g class="st0">
		<path class="st1" d="M23.8,12.5l-0.6,0.9l-0.6-0.1l-0.8-0.6l-0.2-1.4h-0.2c0,2.4,1.9,2.4,1.9,3.4v1.1h0.4v0.3c0,0-0.3,0.1-0.4,0.1
			c-0.4,0-0.2,0-0.7-0.1c-0.1-0.8-1-0.8-1-2.6l-0.7-0.2L20.7,15h-0.2v-2.3c0.1-1.2,1.8-4.3,4.1-3.3l-1.4,0L23.8,12.5z"/>
		<path class="st2" d="M45.8,16.2l-0.9-0.6l-0.2,0.1l-1.2,3.2l0.2,0.1l2.7-1.2l0.2-1.6h-0.6v-0.5l-0.4,0L45.8,16.2z M59.8,13.6
			l-0.3-1.2L59,13.1l-2,0.6v-0.3l-0.4,0l0.4-0.5l-0.6-0.1l3-1.5l-0.1-0.1c-1,0-1.6,0.1-2.2-0.4c-1.2,1,0,0.5-1.9,1.1l-0.2-0.8
			l-0.2-0.1l-1,1.4l0.2,0.1l-0.7,0l-0.2-0.2c-0.1,0.3-0.2,0.3-0.2,0.6v0.4l-0.6,0L52,12.9l-0.4,0l0.9-1.5c-1.2,0.2-2.2,2.6-2.2,3.7
			h-0.4l0.2-0.8h-1.5v-1.1c-0.8,0.4-1.9,3.1-1.9,4.2l0.1,0.1l9-4.3l-0.2,0.5l1.8,0.3v0.3c-0.9,0.2-0.8,0.9-2,1.2
			c-0.8,0.2-1.8,0.1-2.1-0.7H54l-0.1-0.3l-15.1,7.3c-0.8-0.2-0.1-0.1,0.3-0.6c0.4-0.4,0.1-0.8,0.8-0.3c0-0.4-0.2-0.5-0.2-0.9v-0.1
			c0-0.6,1.1-2.2,1.5-2.5c3.7-2.8,10.3-8.5,18.1-6.6c0.9,0.2,0.8,1.4,0.8,2C60.1,13,60,13.3,59.8,13.6z M42.3,17.2l-1.1,1.4v-0.5
			c-0.6,0.1-1.1,0.9-1.1,1.4l0.1,1.1l3-1.4l0.4-1.5c-0.1,0-0.7-0.4-0.7,0c0,0.4,0.1,0.5,0.2,0.9C42.1,18.2,42.2,17.7,42.3,17.2z"/>
		<path class="st3" d="M25.3,16.3L25.1,16c0.5-0.2,1.1-1,1.3-1.4c0.8-1.2,0.9-0.9-0.8-0.9l-0.1-0.6l-0.7,0.4l0.2-1.1l0-0.6L24.4,12
			l0.6-0.8l-0.7,0.1v-0.3h0.4v-0.5l-0.5,0l0.1-0.7l0.7,0.7l0.1-0.3c1,0.5,1.8,0.8,2.2,1.7c0.3,0.6,1,1.7,1.3,1.8l0.2,1.7l-0.7,0.5
			l-1.2-0.3l0-0.2L25.3,16.3z"/>
		<path class="st4" d="M40.9,9.3l-0.9,0.4l0.6,0v0.6c0,0.5,0.1,0-0.2,0.4h0.4V11c-0.5,0.1,0.1,0.9-0.1,1.5c-0.2,0.6-0.6,0.7-0.6,1.8
			l0.7,0.4c-0.4,1.3-0.6,2.1-1.8,2.9c-0.6,0.5-2.4,1.9-3.2,2l0.5-2.3l0.2,0L36,17.2c0-2.5,0.2-11.9-1.7-12.4V4.3
			C37.4,4.3,40.2,7.5,40.9,9.3z"/>
		<path class="st5" d="M41.2,17.2c-0.4,0.3-1.5,1.9-1.5,2.5v0.1c0,0.4,0.1,0.5,0.2,0.9c-0.7-0.5-0.4-0.1-0.8,0.3
			c-0.4,0.5-1.1,0.4-0.3,0.6l-4.1,2.7l-5.4,3.5l-1.5,0.1c0.7-1-0.4-0.7,1.1-2.2c0.5-0.4,1.3-1.3,1.3-2l-2.4,2.5l-0.2-0.5l0.4-2.2
			l0.8,0L28.5,24l1,0.1l-0.2-0.5c1.5-0.2,1.5-1.1,1.5-1.9c0-0.3,0.3-0.4,0.6-0.6c-1-0.2-0.4-0.7-1-1.4l-0.7-3.4l-0.6,0l-0.2-0.4
			l-2.7,2.9l-0.7-2.4l1.4-0.8l0,0.2l1.2,0.3l0.7-0.5l-0.2-1.7c-0.3-0.1-1-1.1-1.3-1.8c-0.4-0.9-1.2-1.2-2.2-1.7l-0.1,0.3l-0.7-0.7
			l-0.1,0.7l0.5,0v0.5h-0.4v0.3l0.7-0.1L24.4,12l0.7-0.1l0,0.6l-0.2,1.1l0.7-0.4l0.1,0.6c1.7,0,1.5-0.3,0.8,0.9
			c-0.3,0.4-0.8,1.2-1.3,1.4l-1.3-3.5l-0.7-3l1.4,0c1,0.6,1.7,0.8,2.8,1.5c0.6,0.4,1.9,1.3,2,1.9c0.3,1,0.8,4.2,0.9,5.3
			c0.1,0.7,0.6,1.8,0.9,2.4c0.7,1.3,0.7,0.8,0.7,2.3l-1.1,3.2l-0.3,0.1l-0.1,0.7l4.5-3l0.3-1.4l0.5-0.4h-0.4l0.4-2.4
			c0.8-0.1,2.6-1.5,3.2-2c1.2-0.9,1.4-1.7,1.8-2.9L40,14.3c0-1.1,0.4-1.2,0.6-1.8c0.2-0.6-0.3-1.3,0.1-1.5v-0.3h-0.4
			c0.2-0.3,0.2,0.1,0.2-0.4V9.7l-0.6,0l0.9-0.4C41.8,12.7,41.3,14.7,41.2,17.2z"/>
		<path class="st4" d="M55.1,15.8L53.8,17l-1,0.4l-1.4-0.1l0.3-0.5h-0.6v-0.4c0-0.7,1-0.5,1.1-1.2L55.1,15.8z"/>
		<path class="st6" d="M45.6,15.5l0.4,0V16h0.6l-0.2,1.7l-2.7,1.2l-0.2-0.1l1.2-3.2l0.2-0.1l0.9,0.6L45.6,15.5z"/>
		<path class="st5" d="M41.2,18.6l1.1-1.4c-0.1,0.6-0.2,1,0.7,1.4c0-0.4-0.2-0.5-0.2-0.9c0-0.4,0.7,0,0.7,0l-0.4,1.5l-3,1.4
			l-0.1-1.1c0-0.5,0.5-1.3,1.1-1.4L41.2,18.6L41.2,18.6z"/>
		<path class="st4" d="M35.9,14.8c-0.6,0.1-0.1,1.2-0.3,2c-0.1,0.6-0.3,1.5-0.3,2.2c0,1.5-0.7,3-0.7,4.4c-1.5-0.3-2.1-1.4-2.8-2.3
			l0.2,0L30.7,18l0.2-0.1l1.2,0.9c-0.4-1.2-1.7-1-1.7-3.5l1.7,2.5l0.3,0l0.4-0.5l0.2,0.2v-0.3h0.4l-0.3-0.9l0.7,0.1V16
			c0-0.5,0.5-0.7,0.7-1.4c-0.8-0.2,0.4-0.2-0.6-1c-0.6-0.5-0.9-0.3-0.8-1.1l1.4,0.5c-0.5-0.7,1.1-1,0.2-1.9c0.1-0.2,0.6-0.7,0.6-0.9
			c0-0.3-0.5,0-0.6-0.7L35.1,9h0.5L35.9,14.8z"/>
		<path class="st7" d="M23.8,12.5l1.3,3.5l0.2,0.3l0.7,2.4l1.7,7.1l0.2,1.9h-0.4c0-1.6-1.5-9.2-2.6-9.6l-0.1,0.4l-1,0.4l1.7,0.8
			l-1.3,0.4l-0.2,0l1.4,0.8l-1,0.1l-1.3-0.7l0.2-0.1h-0.7l-0.9-1.6l0.2-0.5l0.5,0.1l0.1-0.1l-0.6-0.3v-0.4c0-0.3-0.1-0.3-0.3-0.5
			l-0.4-1.5l-0.2,0V16c-0.6,0.2-0.6,0.9-0.6,1.4v1.4c0,1.6,1.3,4.4,2.2,5.4l-0.5,0.1l1.4,1.4l0,1l-1.3-1.3l-0.2,3v-2.7l-0.2-0.9
			l0.4-0.1c-0.8-1.1-2-3.7-2-5.4l-0.2-0.1l-0.3-0.7l0.4,0.1l0.6-6V15h0.2l0.2-1.6l0.7,0.2c0,1.8,0.9,1.8,1,2.6
			c0.5,0.1,0.3,0.1,0.7,0.1c0,0,0.4-0.1,0.4-0.1v-0.3h-0.4v-1.1c0-1-1.9-1-1.9-3.4h0.2l0.2,1.4l0.8,0.6l0.6,0.1L23.8,12.5z"/>
		<path class="st8" d="M59.8,13.6l-0.9,1.5c-1.9,1.5-1.9,1.8-4.3,3.2L49,20.5l-0.9,0.3l-7.4,0.6l0-0.1h-0.4c-0.5,0-0.7,0.3-1.1,0.5
			l-0.4-0.1l15.1-7.3l0.1,0.3h-0.6c0.3,0.8,1.2,0.8,2.1,0.7c1.2-0.2,1.1-1,2-1.2v-0.3l-1.8-0.3l0.2-0.5l-9,4.3l-0.1-0.1
			c0-1.1,1-3.8,1.9-4.2v1.1h1.5L49.9,15h0.4c0-1.1,1.1-3.5,2.2-3.7l-0.9,1.5l0.4,0l0.1,0.5l0.6,0V13c0-0.3,0.1-0.3,0.2-0.6l0.2,0.2
			l0.7,0l-0.2-0.1l1-1.4l0.2,0.1l0.2,0.8c1.9-0.6,0.6-0.2,1.9-1.1c0.6,0.4,1.2,0.4,2.2,0.4l0.1,0.1l-3,1.5l0.6,0.1l-0.4,0.5l0.4,0
			v0.3l2-0.6l0.5-0.6L59.8,13.6z M52.2,15.2c-0.1,0.7-1.1,0.5-1.1,1.2v0.4h0.6l-0.3,0.5l1.4,0.1l1-0.4l1.3-1.1L52.2,15.2z"/>
		<path class="st9" d="M27.7,25.8L26,18.7l2.7-2.9l0.2,0.4l0.6,0l0.7,3.4c0.6,0.7,0,1.2,1,1.4c-0.3,0.3-0.6,0.3-0.6,0.6
			c0,0.8,0,1.7-1.5,1.9l0.2,0.5l-1-0.1l0.4-0.4l-0.8,0L27.7,25.8z"/>
		<path class="st10" d="M35.7,19.6L35.3,22h0.4l-0.5,0.4l-0.3,1.4l-4.5,3l0.1-0.7l0.3-0.1c0.4,0.1,3.3-1.7,3.3-2.4l-0.1,0.1
			l-1.9-1.2L32,22.9c0-1.5,0-0.9-0.7-2.3c-0.3-0.6-0.9-1.7-0.9-2.4c-0.1-1.1-0.6-4.3-0.9-5.3l0.4,0.1c0-1.4,0.3-3.6,0.9-4.7
			C31,7.5,31.3,7,31.7,6.4c0.7-1.1,1.2-1.6,2.7-2.1v0.5c1.8,0.5,1.7,9.9,1.7,12.4l0.4,0.1l-0.2,0L35.7,19.6z M35.6,8.9h-0.5
			l-0.4,0.6c0.1,0.6,0.6,0.4,0.6,0.7c0,0.2-0.4,0.7-0.6,0.9c0.9,0.9-0.6,1.2-0.2,1.9l-1.4-0.5c0,0.9,0.2,0.7,0.8,1.1
			c1,0.8-0.2,0.8,0.6,1c-0.2,0.7-0.7,0.9-0.7,1.4v0.5l-0.7-0.1l0.3,0.9h-0.4v0.3l-0.2-0.2l-0.4,0.5l-0.3,0l-1.7-2.5
			c0,2.5,1.2,2.4,1.7,3.5l-1.2-0.9L30.7,18l1.3,3.1l-0.2,0c0.6,0.8,1.3,2,2.8,2.3c0-1.4,0.7-3,0.7-4.4c0-0.7,0.2-1.6,0.3-2.2
			c0.2-0.8-0.3-1.9,0.3-2L35.6,8.9z"/>
		<path class="st11" d="M51.2,20.8l-0.8,0.1l1,0.2l0,0.2l-1.1,0.3c-1.2-0.5-1.1,0.1-2.2,0.1H47v-0.3h1.3l0-0.4l-4.1,0.5v-0.4
			l-1.5,0.4c-3.6,0-5.4,1.2-7.4,2.5L45.9,23h0.6v-0.3c0.6,0,0.7,0.1,1.3,0.1h0.4c0.5,0,0.5-0.1,0.9-0.1l3.4,0.3L50,23.2l-0.1-0.1
			l0,0.4l-0.5-0.3v0.3h-1.7v-0.3l-0.6,0l0.6,0.6h-1.9v0.3h-0.7c-0.7,0-1.4-0.1-1.9-0.3v0.3l-0.7,0.1l-1.5-0.1l-0.2-0.4h-0.6l0,0.4
			l-1.1-0.3v0.4c-1-0.2-2.2,0.7-2.8,0.1l0.6-0.1l-1,0l0.4,0.6L34.6,25l-0.1-0.2l1.2-0.4l-0.9-0.2l4.1-2.7l0.4,0.1
			c0.4-0.2,0.7-0.5,1.1-0.5h0.4l0,0.1l7.4-0.6l0.9-0.3L51.2,20.8z"/>
		<path class="st12" d="M19.6,18.6l0.3,0.7l0.2,0.1c0,1.6,1.3,4.3,2,5.4l-0.4,0.1l0.2,0.9c-0.6,0.2-0.5,0-0.6-0.5l-0.5-0.1l0.2-0.1
			l-1-1.1L19.9,24l0,0.3L19,23.9L18.4,24l-0.8,0.6c1,0.2-2.2,1.3-2.6,1.7l2.3,0.3l0.8-0.3l0.2,0.2l-2.9,1.6
			c-0.6-0.2-0.6-0.9-0.6-1.4l-0.1-4.2l1.1-6.6h0.6C18,16.1,18.8,17.5,19.6,18.6z"/>
		<path class="st13" d="M11.4,27.4l-1.3-1.1l2.2,0.5l0.8-0.5v-1h0.4V25c-1.8-0.6-3.2-2.4-3.2-4.3h0.2c0,1.5,0.7,1.7,1.5,2.5l1.2,0
			l-0.2-0.7l0.9-0.8l-0.6-0.6c0.2-0.2,0.6-0.6,0.6-0.8l0.1-0.6l0.6-0.7l-0.2,6l0,1.9l0.2,1.6c-0.2-0.2-0.2-0.3-0.7-0.3
			C13.3,28.3,12,27.5,11.4,27.4z"/>
		<path class="st14" d="M15.7,15.8l-0.5,0.2l-1.1,1.9l-0.5-0.4l0.3,2.1l-0.2-0.1L13,20l-0.1,0.2l-1.1-1.1l0,0.8l1.5,1.3l0.6,0.6
			l-0.9,0.8l0.2,0.7l-1.2,0c-0.8-0.8-1.5-1-1.5-2.5h-0.2c0,1.9,1.4,3.7,3.2,4.3v0.3h-0.4v1l-0.8,0.5l-2.2-0.5l1.3,1.1l-0.9,0.1
			c0.2,0.4,1.1-0.3,1.3,1.3h-0.9v-0.3l0.4,0l-0.6-0.5c-0.2,0-0.5,0.1-0.6,0.1c-0.9,0-1.5-0.9-2.3-1l2.6,2.4l-0.2,0L9.4,30l0.6,0.1
			l0,0.6l0.7,0.1l0,0.2l-1.1,0.1V31L9,31l0.6,0.9l0.7,1.4l1,1.1c0.3,0.3,0.6,0.6,1,1c0.3,0.3,1,0.5,1.3,0.9l-0.3-0.1l-0.2,0.2h-0.3
			l-0.2,1.1l0.2-1.7l-0.9-0.3l0.2,0l-2.6-2.7L9,32.8c-0.1-0.5-1.1-2.2-1.3-2.9c-0.3-0.9-0.6-2.3-0.6-3.5l-0.5,0.1V26L7,26.2
			c0-2.6,1.4-4.8,2.8-6.6c1.1-1.3,3.6-3.8,6.4-3.8L15.7,15.8L15.7,15.8z"/>
		<path class="st15" d="M22,25.8v2.7l-0.2-1h-0.6l0-0.4l-1.1,0.5c0.3,0.4-1.1,2.1-1.9,2.4v-0.3h-0.7c-0.3,0-1,0.4-2.2,0.4v0.5
			l-0.1-1.4l0.8-0.6l-0.9,0.3l-0.2-0.7l0.4-0.1l2.9-1.6L18,26.1l-0.8,0.3L15,26.2c0.4-0.3,3.6-1.5,2.6-1.7l0.8-0.6l0.6-0.1l0.9,0.4
			l0-0.3l0.2-0.1l1,1.1l-0.2,0.1l0.5,0.1C21.4,25.8,21.3,26,22,25.8z"/>
		<path class="st16" d="M50.3,25.7l-5,0.8c-3.3,0-10.3,0.4-11.6-1.2l-3.3,2.4l-1.1,0.1l5.4-3.5l0.9,0.2l-1.2,0.4l0.1,0.2l1.8-0.1
			L36,24.3l1,0l-0.6,0.1c0.6,0.5,1.7-0.3,2.8-0.1v-0.4l1.1,0.3l0-0.4h0.6l0.2,0.4l1.5,0.1l0.7-0.1v-0.3c0.5,0.2,1.1,0.3,1.9,0.3h0.7
			v-0.3h1.9l-0.6-0.6l0.6,0v0.3h1.7v-0.3l0.5,0.3l0-0.4l0.1,0.1l2.4-0.2L49,22.7l4.6,0.2l-4.8,1l-0.2-0.1l0.3,0.6l-1.3,0.2v-0.3
			l-1,0.2l0.5,0.3l-0.9,0.7l0-0.6c-0.4-0.1-0.4-0.1-0.9-0.1h-0.7v0.3l1.3,0v0.4L43.6,25c0.3,0.5,2.1,0.6,3.2,0.6h1.3
			c0.8,0,2.9-0.5,3.1-1l0.9,0.1l2.4-1.5l-0.1-0.1l0.3,0.3v-0.9l0.2,0.9C53.4,25,52.8,24.9,50.3,25.7z"/>
		<path class="st17" d="M54.8,22.5v0.9l-0.3-0.3l0.1,0.1l-2.4,1.5l-0.9-0.1c-0.2,0.5-2.3,1-3.1,1h-1.3c-1,0-2.9-0.1-3.2-0.6l2.4,0.3
			v-0.4l-1.3,0v-0.3h0.7c0.5,0,0.5,0.1,0.9,0.1l0,0.6l0.9-0.7l-0.5-0.3l1-0.2v0.3l1.3-0.2l-0.3-0.6l0.2,0.1l4.8-1L49,22.8
			c-0.4,0.1-0.4,0.1-0.9,0.1h-0.4c-0.6,0-0.7-0.1-1.3-0.1V23h-0.6l-10.6,1.1c2.1-1.3,3.8-2.5,7.4-2.5l1.5-0.4v0.4l4.1-0.5l0,0.4H47
			v0.3h1.1c1.1,0,1.1-0.6,2.2-0.1l1.1-0.3l0-0.2l-1-0.2l0.8-0.1C52.9,20.9,54,21.7,54.8,22.5z"/>
		<path class="st4" d="M27.7,25.8l0.2,0.5l2.4-2.5c0,0.7-0.8,1.6-1.3,2c-1.5,1.4-0.4,1.1-1.1,2.2l1.5-0.1l1.1-0.1l0.9-0.3H34l0,0.2
			l-2.7,0.5l2.4,0.2v-0.4l1.1,0l0.3,0.4l0.1-0.4h0.6v0.3h0.7c-0.3,0.3-3.3,0.4-4.8,1.3c-1.2,0-1.4-0.4-2.6-0.4h-0.9
			c-0.1,0.9-0.4,0.3-1.3,0.7c-0.6,0.3-0.6,0.6-1.1,0.9l-0.2-0.5c0.8-0.4,1.9-1,1.7-1.6H26c-1.1-0.4-2.3-1-2.6-1.9l0-1l-1.4-1.4
			l0.5-0.1c-0.9-1-2.2-3.8-2.2-5.4v-1.4c0-0.5,0-1.2,0.6-1.4v-0.8l0.2,0l0.4,1.5c0.1,0.2,0.3,0.2,0.3,0.5v0.4l0.6,0.3l-0.1,0.1
			L21.8,18l-0.2,0.5l0.9,1.6h0.7l-0.2,0.1l1.3,0.7l1.1-0.1l-1.4-0.8l0.2,0l1.3-0.4l-1.7-0.8l1-0.4L25,18c1.1,0.5,2.6,8,2.6,9.6h0.4
			L27.7,25.8z"/>
		<path class="st9" d="M6.6,26v0.4l0.5-0.1c0,1.1,0.3,2.6,0.6,3.5c0.2,0.8,1.2,2.4,1.3,2.9l-0.4-0.1v0.3l-0.3,0l-0.6-0.5l0.6-0.2
			c-1-0.3,0.3-0.7-0.8-0.5c-0.4,0.1-0.5,0-0.9-0.1l0.2-0.9l0.6,0.3v-0.4H6.6v-0.3c-0.2,0.1-0.6,0.3-0.9,0.3c-0.1,0-0.4-0.2-0.6-0.3
			l0.6-0.6l1-0.1l-0.1,0.4H7l0-0.9H6.8v0.4l-1.1-0.1v0.3H5.1V30H4.7L5,29.9l-1.3-2.2l-1.1,0.3l-0.2,0.5v-5.1
			C3.8,23.6,5.8,25.2,6.6,26z"/>
		<path class="st18" d="M18.3,30l-0.7,0.9c0.6-0.1,0.5-0.3,0.7-0.3c0.7,0,0.7,0.4,0.8,0.9l0.3-0.4c0.3,0.1,0.4,0,0.4,0.4v0.1
			c0,0.3-1.2,1.5-1.9,1.7L17.3,34l1.6-0.5l0.2,0.1l-1,1.4l0.8-0.9l0.5,0l-0.6,1.2l0.6-0.8l0.7,0.2l-2.5,1.8
			c-0.1-0.1-1.5-1.3-1.5-1.8l0.1-1.2l0.4-0.5l-0.9-0.8l-0.3,0.1l-0.3-1.8v-0.5c1.2,0,1.9-0.4,2.2-0.4h0.7L18.3,30L18.3,30z"/>
		<path class="st7" d="M15.3,27.9l-0.4,0.1l0.2,0.7l0.9-0.3l-0.8,0.6l0.1,1.4l0.3,1.8l0.3-0.1l0.9,0.8l-0.4,0.5l-0.1,1.2
			c0,0.5,1.4,1.6,1.5,1.8l2.5-1.8l-0.7-0.2l-0.6,0.8l0.6-1.2l-0.5,0l-0.8,0.9l1-1.4L19,33.6L17.3,34l0.5-0.7
			c0.7-0.2,1.9-1.4,1.9-1.7v-0.1c0-0.4-0.1-0.2-0.4-0.4l-0.3,0.4C19,31,19,30.6,18.3,30.6c-0.3,0-0.1,0.1-0.7,0.3l0.7-0.9
			c0.8-0.3,2.1-2,1.9-2.4l1.1-0.5l0,0.4h0.6l0.2,1c0,2.6-0.6,3.2-1.3,5.1l6.3-4.8l-1-0.1h1.1c0.2,0.6-0.9,1.3-1.7,1.6l0.2,0.5
			l-0.2,0.4l-4.3,3.2v0.3h0.4l-1.3,0.4c0,0.8-0.8,1.5-2.1,1.6l0.4,0.1l-0.6,0.4l1.1,0.1l-1,0.2c0,1.2,0.5,1.5,1.7,1.9v0.4h-1.3
			c-0.3-0.7-1.1,0.1-1.1-1.9h-0.2c0,2.4,0.8,1.9,1.9,3.1c0.4,0.5,2.3,1.6,3.9,1.6v0.4c1.9,0.1,5.6,1.3,7.4,1.3h1.1l0,0.2l2.9,0.3
			h1.9c1.1,0,2.5-0.3,2.8-0.9L39,42.9l0.7,0.3v-0.6c0,0-0.6-1.1-0.8-1.3l-0.4,0.1l0.2-0.4c-1.1-0.4-0.1-1.1-1.3-0.8l0.1-0.1l-1.8-1
			l-2.2-0.3l0.4-0.3l-3.5-0.7c0.4-0.2,0.9-0.3,1.7-0.3h0.6c0.5,0,0.5,0.1,0.9,0.1l0.1-0.2l-3.5-0.5l0,0.2l0-0.3l-1.3,0.2v-0.3H27
			l0-0.1l3.4-0.2c-0.4-0.2-0.9-0.4-1.7-0.4L28,35.8l-1.6-0.4l-0.5,0.2l-1.1-0.2l1.9-0.3l-3-0.3l0.6-0.1l-0.6-0.3h-1.3l4.8-0.1
			c0.7,0.3,3.6,1.1,4.8,1.4c2.5,0.9,2.2,1,4,1.9c1.5,0.7,5.6,4.4,4.2,6.4l-5.4,0.6c-5.5,0-18.6-2.9-18.7-6l-0.2-0.1l-2.9,2.8
			c5.7,0,6.8,0.6,10.4,2c3.6,1.5,4.5,2.3,6.3,4.9l-0.5,0.2l-1.6-1.6L26.8,47l-0.2-0.2l-0.2-0.6l0-0.4h-0.7v-0.4
			c0-0.5-0.7-0.4-1.5-0.4l-1.3-0.3L22,44.9c-0.3-0.5-1.6-0.5-2.2-0.4l0.1-0.2L17.9,44c0.8-0.7,2.7-0.1,4.2-0.2l-1.2-0.4l-2.6-0.6
			c-0.3,0.2-0.3,0.3-0.7,0.3h-0.2c-0.6,0-0.7-0.1-1.3-0.1v-0.3h0.6c0.7,0,0.1,0,0.5,0.1l0.2-0.4l-1.7-0.2l0.6-0.3
			c-2.3-0.4-2.2-0.3-4.7,0.1l2.4-2.4l-1,0.8l-0.4-0.1l3.2-2.9l-0.2,0.1l-2.7-1.1l0.2-0.2l0.3,0.1c0.8,0.2,0.9,0.5,2.2,0.5h0.7v-0.6
			c0-0.5-1-2.6-1.3-3.6c-0.2-1.1-0.3-3.2-0.8-3.9h-0.7l-0.1,1.5L12,30l-0.1,0.1l-1.2-0.4c0.4,0.9,3,1.1,3,1.6v0.5
			c0,0.4-0.4,0.3-0.7,0.8c-0.2-0.1-0.2-0.1-0.6-0.1h-0.6l0-0.4l-1.9-0.3l0.1-0.2H9.6v0.3L9,31l0.6,0v0.3l1.1-0.1l0-0.2l-0.7-0.1
			l0-0.6L9.4,30l0.9-0.4l0.2,0l-2.6-2.4c0.8,0.1,1.4,1,2.3,1c0,0,0.3-0.1,0.6-0.1l0.6,0.5l-0.4,0v0.3h0.9c-0.2-1.6-1.1-0.8-1.3-1.3
			l0.9-0.1c0.6,0.1,1.9,0.9,2.4,0.9c0.5,0,0.5,0.1,0.7,0.3l-0.2-1.6l0-1.9l0.2-6L14,19.7l-0.1,0.6c0,0.2-0.4,0.6-0.6,0.8l-1.5-1.3
			l0-0.8l1.1,1.1L13,20l0.7-0.5l0.2,0.1l-0.3-2.1l0.5,0.4l1.1-1.9l0.5-0.2l-1.1,6.6l0.1,4.2C14.7,27.1,14.7,27.8,15.3,27.9z"/>
		<path class="st19" d="M46.1,36.4h0.4v-0.5l-0.2,0l-0.1-0.8c-0.6-0.4-0.2-0.5-1.4-0.5l-0.2-0.6l-0.6,0l-2.3-0.7v-0.3l3.3,0.4
			c-0.3-0.8-1.4-0.8-2.4-0.8c0.4-0.7-1.3-0.5-2.3-0.6l1.3-0.2l-1.1-0.6c-0.9,0.3-1.9-0.1-2.2,0.6l-6.5-2.5c1.5-0.9,4.5-0.9,4.8-1.3
			h-0.7v-0.3h-0.6L35,28.3l-0.3-0.4l-1.1,0v0.4l-2.4-0.2l2.7-0.5l0-0.2h-2.6c0.6-0.3,3.3-0.8,4.3-0.4l1.1,0.4l-0.2,0.6l0-0.1
			l3.3,0.5l0,0.2l-3.1-0.2l0,0.2l1.8,0.2l0.4,0.3l1.1,0.2l-2.6,0.2v0.3l3.7,0.2v0.3l-0.8,0.1l2.3,0.9h-1.3v0.3H42
			c0.2,0,1.3,0.5,2.2,0.5l0,0.3l1.4,0.4v0.8h0.4l-0.2,0.6l0.6,0v0.7l0.4,0.1c0,0.6,0,1.6-0.7,1.8V36.4z"/>
		<path class="st3" d="M13.4,36.3c-0.2-0.4-0.9-0.6-1.3-0.9c-0.4-0.4-0.6-0.7-1-1l-1-1.1l-0.7-1.4v-0.3h0.4l-0.1,0.2l1.9,0.3l0,0.4
			h0.6c0.4,0,0.3,0,0.6,0.1c0.4-0.5,0.7-0.4,0.7-0.8v-0.5c0-0.5-2.6-0.7-3-1.6l1.2,0.4l0.1-0.1l1.7,0.2l0.1-1.5h0.7
			c0.5,0.7,0.6,2.8,0.8,3.9c0.2,0.9,1.3,3,1.3,3.6v0.6h-0.7C14.4,36.8,14.3,36.4,13.4,36.3z"/>
		<path class="st20" d="M46.1,36.4l-8-4.4c0.4-0.7,1.4-0.4,2.2-0.6l1.1,0.6l-1.3,0.2c0.9,0.1,2.7-0.1,2.3,0.6c1,0,2.1-0.1,2.4,0.8
			l-3.3-0.4v0.3l2.3,0.7l0.6,0l0.2,0.6c1.2,0,0.9,0.1,1.4,0.5l0.1,0.8l0.2,0v0.5H46.1z"/>
		<path class="st13" d="M9,32.8l0.2,0.1c-1,0.4-0.7,1.4-1.5,2.3c-0.5,0.6-1.5,1.6-2.2,1.9v-0.8l0.2-0.1l-0.2-0.3l0.6-0.1l-0.6-0.4
			v-0.8v-0.1v-0.3l-0.2,0l-0.1-0.7l-1.3,2.1l-1.5-3.5v-3.7l0.2-0.5l1.1-0.3L5,29.9L4.7,30h0.4v-0.5h0.6v-0.3l1.1,0.1V29H7l0,0.9H6.6
			l0.1-0.4l-1,0.1l-0.6,0.6c0.2,0.1,0.4,0.3,0.6,0.3c0.3,0,0.7-0.2,0.9-0.3v0.3h0.7v0.4l-0.6-0.3l-0.2,0.9c0.3,0.1,0.5,0.2,0.9,0.1
			c1.1-0.2-0.2,0.2,0.8,0.5l-0.6,0.2l0.7,0.5l0.3,0v-0.3L9,32.8z"/>
		<path class="st21" d="M43.5,30.3c1.4,1.4,3.7,2.8,3.7,5.3c0,1.6-1.2,1.9-3.5,1.9c-2.2,0-3.8-0.5-5.7-0.8c-2.3-0.3-3.2-0.7-4.7-1.5
			c-1.2-0.6-3-1.4-4.3-1.7c-2.6-0.8-2.2-1-3.5-2.4l0.2-0.4c0.4-0.3,0.5-0.6,1.1-0.9c1-0.5,1.2,0.1,1.3-0.7H29c1.1,0,1.4,0.4,2.6,0.4
			l6.5,2.5l8,4.4v0.3c0.7-0.1,0.7-1.2,0.7-1.8l-0.4-0.1v-0.7l-0.6,0l0.2-0.6h-0.4v-0.8l-1.4-0.4l0-0.3c-0.9,0-2-0.5-2.2-0.5h-0.6
			v-0.3h1.3l-2.3-0.9l0.8-0.1V30l-3.7-0.2v-0.3l2.6-0.2L39,29.1l-0.4-0.3l-1.8-0.2l0-0.2l3.1,0.2l0-0.2l-3.3-0.5l0,0.1l0.2-0.6
			L35.7,27C38.9,27.1,42.1,29,43.5,30.3z M38.1,36.3v0.3h1.9c0.4,0.7,3,0.8,4.4,0.8c0.8,0,1-0.1,1.7-0.3l-1.9-1.4L43,35.4l-0.3-0.6
			h-0.4l-0.1,0.7l-0.3-0.6l-1.1-0.4l-0.1-0.7l-0.6,0.5l-0.4-1.2l-0.4,1.2l-1.1-0.8L38,32.8l-0.2,0l-0.2,0.6
			c-0.7-0.2-1.4,0.3-1.5-0.6c-0.9,0.7-0.2-0.3-1.3-0.5l-0.1-1.1L34.2,32l-0.3,0.8l-1.3-0.6l-0.5-0.7l-1.3-0.2l-0.1-0.5l-0.3,0.5
			l-1.2-0.7l-0.1,0.1l-0.1-0.8l-1.2,0.7l-0.4-0.8c-0.7,0.1-1.1,0.3-1.1,0.9v0.9c0,0.9,4.3,2.1,5.4,2.6c0.8,0.4,0.6,0.3,1.5,0.5
			c0.7,0.2,0.5,0.3,1.4,0.7C35.6,35.8,36.6,36.3,38.1,36.3z"/>
		<path class="st4" d="M34.2,32l0.2,1.4l1.1,0.2l0,0.3l1,0.3l-0.1,0.1h0.4V34h0.4l0.6,0.9l0.1-1l0.2,0.7h0.6c0.6,0,0.6,0.7,0.9,1.1
			h0.4v-0.4l0.3,0l0.5,1.3l-0.5-0.5l-0.1,0.3H39c-0.5,0-0.5-0.1-0.9-0.1c-1.5,0-2.5-0.5-3.4-0.9c-0.9-0.4-0.7-0.5-1.4-0.7
			c-0.9-0.3-0.6-0.1-1.5-0.5c-1.1-0.5-5.4-1.8-5.4-2.6v-0.9c0-0.6,0.4-0.8,1.1-0.9l0.4,0.8l1.2-0.7l0.1,0.8l0.1-0.1l1.2,0.7l0.3-0.5
			l0.1,0.5l1.3,0.2l0.5,0.7l1.3,0.6L34.2,32z"/>
		<path class="st22" d="M38.1,36.3c0.4,0.1,0.4,0.1,0.9,0.1h1.1l0.1-0.3l0.5,0.5l-0.5-1.3l-0.3,0v0.4h-0.4c-0.3-0.5-0.3-1.1-0.9-1.1
			h-0.6l-0.2-0.7l-0.1,1L37.1,34h-0.4v0.3h-0.4l0.1-0.1l-1-0.3l0-0.3l-1.1-0.2L34.2,32l0.5-0.7l0.1,1.1c1.1,0.2,0.4,1.2,1.3,0.5
			c0.1,0.9,0.8,0.4,1.5,0.6l0.2-0.6l0.2,0l0.2,0.7l1.1,0.8l0.4-1.2l0.4,1.2l0.6-0.5l0.1,0.7l1.1,0.4l0.3,0.6l0.1-0.7h0.4l0.3,0.6
			l1.1,0.2l1.9,1.4c-0.7,0.1-0.9,0.3-1.7,0.3c-1.4,0-4.1,0-4.4-0.8h-1.9L38.1,36.3L38.1,36.3z"/>
		<path class="st23" d="M12.3,37.6v0.6l-0.4,0.4c0,0.9-0.8,2.2-1.2,2.8c-0.8,1.2-1.5,1.2-2.7,1.9l-0.3,0.2L7.1,43v-0.4
			c0-0.1-1.1-2.3-1.5-2.4l0.2,0l-2-4.5l1.3-2.1l0.1,0.7l0.2,0v0.3v0.1v0.8l0.6,0.4l-0.6,0.1l0.2,0.3l-0.2,0.1v0.8
			c0.7-0.3,1.7-1.4,2.2-1.9c0.8-0.9,0.4-1.9,1.5-2.3l2.6,2.7l-0.2,0l0.9,0.3L12.3,37.6z"/>
		<path class="st19" d="M7,43.8l-3.5-0.5v2.5c0,0.9-0.4,2.4-1.1,2.8V33.5l0.4,0.1C2.7,35.5,7.1,43.5,7,43.8z"/>
		<path class="st24" d="M33.3,40.3l0,0.8l-1.5-0.3c-0.4-0.5-1.1-0.6-1.1-0.9c0-0.3,0.1-0.1,0.2-0.5l-1-0.1l0.2,1.1L30,41l-2.9-1
			v-0.6H27l-0.1,1.1l-1.2-0.8v0.6c-1.4-0.5-2.2-0.9-2.2-2.5l1,0l-1.5-0.3c0.2,0.4,0.4,0.4,0.4,0.9v1.5l-0.5,0l-0.2-0.5h-0.9
			c-0.3-0.3-1.3-1-1.3-1.3v-0.4c0-0.3,0.1-0.3,0.2-0.6l-0.3,0l-0.3,2.4v-0.4c-1.1-0.4-1.7-0.7-1.7-1.9l1-0.2l-1.1-0.1l0.6-0.4
			c2.9,0,4.5,0.8,5.7,0.8h0.6c0.3,0.6,10.1,2.8,11,4l-0.5,0.3C35.4,40.9,34,40.6,33.3,40.3z"/>
		<path class="st18" d="M39.2,43.5c-0.1,0-1.9,0.5-1.9,0.5c-0.6,0-0.7-0.1-1.1-0.1l-1,0.2l-0.2-0.4l-2,0.1l-0.6-0.6l0.3-0.2L32,43.2
			l-1.3-1.4l0.5,0.3l0.2-0.4c0.9,0.5-0.2,0.4,0.8,0.8c0.6,0.2,1.3,0,0.9,0.5l0.8,0l-0.6-2.7c0.7,0.3,2.1,0.6,2.2,1.3l0.5-0.3
			c-0.9-1.2-10.7-3.4-11-4h-0.6c-1.3,0-2.8-0.8-5.7-0.8l-0.4-0.1c1.3-0.1,2-0.7,2.1-1.6l1.3-0.4l0.7-0.1h1.3l0.6,0.3l-0.6,0.1l3,0.3
			l-1.9,0.3l1.1,0.2l0.5-0.2l1.6,0.4l0.7,0.1c0.8,0,1.3,0.1,1.7,0.4L27,36.5l0,0.1h1.9v0.3l1.3-0.2l0,0.3l0-0.2l3.5,0.5l-0.1,0.2
			c-0.4-0.1-0.4-0.1-0.9-0.1h-0.6c-0.7,0-1.2,0.1-1.7,0.3l3.6,0.7l-0.4,0.3l2.2,0.3l1.8,1l-0.1,0.1c1.2-0.4,0.2,0.4,1.3,0.8
			l-0.2,0.4l0.4-0.1c0.1,0.2,0.8,1.3,0.8,1.3v0.6L39,42.9L39.2,43.5z"/>
		<path class="st19" d="M33.3,40.3l0.6,2.7l-0.8,0c0.3-0.6-0.3-0.3-0.9-0.5c-0.9-0.3,0.2-0.3-0.8-0.8l-0.2,0.4l-0.5-0.3l1.3,1.4
			l0.9-0.1l-0.3,0.2l0.6,0.6l2-0.1l0.2,0.4l1-0.2c0.4,0,0.5,0.1,1.1,0.1c0,0,1.7-0.5,1.9-0.5c-0.3,0.6-1.7,0.9-2.8,0.9h-1.9
			l-2.9-0.3l0-0.2h-1.1c-1.8,0-5.5-1.2-7.4-1.3v-0.4c-1.5,0-3.4-1.1-3.9-1.6c-1-1.2-1.9-0.7-1.9-3.1h0.2c0,2,0.8,1.2,1.1,1.9h1.3
			l0.3-2.4l0.3,0c-0.1,0.3-0.2,0.3-0.2,0.6v0.4c0,0.3,1,1,1.3,1.3h0.9l0.2,0.5l0.5,0v-1.5c0-0.5-0.2-0.4-0.4-0.9l1.5,0.3l-1,0
			c0,1.6,0.8,2,2.2,2.5v-0.6l1.2,0.8l0.1-1.1h0.2V40l2.9,1l0.1-0.5l-0.2-1.1l1,0.1c-0.1,0.4-0.2,0.2-0.2,0.5c0,0.3,0.7,0.4,1.1,0.9
			l1.5,0.3L33.3,40.3z"/>
		<path class="st19" d="M26.6,46.8l-0.5-0.1l-0.6-0.3l0,0.3l-1.3-0.2c-0.2-0.9-2.2-0.8-2.4-1.1h2l0-0.1L20.3,45h-0.7l-0.1,0.2
			l-1-0.2l-0.1-0.3c-1.4-0.2-1.7-0.6-3,0.1c-0.8-0.2-2.5-0.7-3.3-0.9c-0.2,0-1.8-0.4-1.8-0.4C9.7,43.5,9,44,8.8,43.5l3.7-3.3
			l0.4,0.1l1-0.8L11.6,42c2.5-0.4,2.4-0.5,4.7-0.1l-0.6,0.3l1.7,0.2l-0.2,0.4c-0.5-0.2,0.2-0.1-0.5-0.1h-0.6v0.3
			c0.6,0,0.7,0.1,1.3,0.1h0.2c0.4,0,0.4-0.1,0.7-0.3l2.6,0.6l1.2,0.4c-1.5,0.1-3.4-0.5-4.2,0.2l1.9,0.3l-0.1,0.2
			c0.6-0.1,1.9-0.1,2.2,0.4l0.9-0.3l1.3,0.3c0.7,0,1.5-0.1,1.5,0.4v0.4h0.7l0,0.4L26.6,46.8z"/>
		<path class="st10" d="M3.8,35.7l2,4.5l-0.2,0c0.4,0.1,1.5,2.3,1.5,2.4V43l0.7,0.5l0.3-0.2l0.2,0.5l0.6-0.3c0.2,0.4,0.9,0,1.6,0.1
			c0,0,1.6,0.4,1.8,0.4c0.8,0.2,2.5,0.7,3.3,0.9c3.7,1.3,13,5,15.2,6.6c-0.8,0.8-3.6,0.9-5.7,0.9c-3.1,0-8.9-0.7-10.9-1.4
			c-1.5-0.5-2.8-0.9-4.2-1.6c-1.4-0.7-2.2-2.2-2.9-2.5l-4.5,4v-1.4l5.1-5.2l-0.5-0.5c0.2-0.3-4.2-8.2-4.2-10.1l-0.4-0.1v-1.4
			L3.8,35.7z M8.3,44.7L8,45.4L7.5,45c-0.1,0.3-0.2,0.3-0.2,0.6c0,1.3,1.3,2.3,2.3,3c0.5,0.4,3.3,1.8,4,1.8c0.3,0,2.6,0.7,3.4,0.9
			c1.3,0.2,2.6,0.3,3.9,0.5c2.9,0.4,6,0.3,8.5-0.1l0.2-0.1l-3.1-1.8l-0.1,0.8l-1.7-1.2l0.2-0.1H24l-0.4-0.8l0,1.7L23,49.6l-0.9-0.5
			l-1.2-1.1l-0.4-0.9l0.4,2.5h-0.4c-0.5-1.4-2.7-1.2-1.9-1.7l-0.8-0.5l-0.6-1.1l0,2.3l-0.5-0.7l-0.6,0.1c-0.6-0.8-0.2,0-1-0.6
			c-0.6-0.4-0.4-0.5-0.7-1l-0.3-0.1l-0.6-1h-0.4v1h-0.4l0-0.3l-1.4,0.3l0.2-0.4c-0.7-0.1-1.1-0.8-1.1-1.3v-0.4h-0.4v1.4L10,46
			l-0.7-0.8L8.3,44.7z"/>
		<path class="st18" d="M26.6,46.8l0.2,0.2l0.7-0.1l1.6,1.6l0.5-0.2c0.5,0.4,1.8,2.5,1.1,3.2c-2.2-1.6-11.5-5.3-15.2-6.6
			c1.3-0.8,1.6-0.3,3-0.1l0.1,0.3l1,0.2l0.1-0.2h0.7l3.5,0.2l0,0.1h-2c0.2,0.4,2.3,0.2,2.4,1.1l1.3,0.2l0-0.3l0.6,0.3L26.6,46.8z"/>
		<path class="st15" d="M9.3,45.2l0.7,0.8l0.2-0.1v-1.4h0.4v0.4c0,0.5,0.4,1.1,1.1,1.3l-0.2,0.4l1.4-0.3l0,0.3h0.4v-1h0.4l0.6,1
			l0.3,0.1c0.3,0.5,0.1,0.6,0.7,1c0.8,0.5,0.4-0.2,1,0.6l0.6-0.1l0.5,0.7l0-2.3l0.6,1.1l0.8,0.5c-0.8,0.5,1.4,0.3,1.9,1.7h0.4
			l-0.4-2.5l0.4,0.9l1.2,1.1l0.9,0.5l0.6,0.6l0-1.7l0.4,0.8h0.7l-0.2,0.1l1.7,1.2l0.1-0.8l3.1,1.8l-0.2,0.1
			c-2.5,0.4-5.6,0.5-8.5,0.1c-1.3-0.2-2.6-0.3-3.9-0.5c-0.8-0.1-3.1-0.9-3.4-0.9c-0.7,0-3.5-1.5-4-1.8c-1-0.7-2.3-1.6-2.3-3
			c0-0.3,0.1-0.3,0.2-0.6L8,45.4l0.3-0.6L9.3,45.2z"/>
		<path class="st4" d="M9.4,52.1c0.6,0.7-0.8,0.3-0.9,1h1.5l0,0.7l0.7,0.1l0.7,0l0.2-0.2v0.3l1,0.1l-1,0.3l1.7-0.2v0.3h0.4l-0.1,0.2
			l-2.9,0.9l-8.3-2v-1.8l4.1-0.8h3.2V51h-2l0.2,0.6l0.8-0.2l0.3,1l0.3,0L9.4,52.1z"/>
		<path class="st22" d="M21,60.2l-0.9-0.6c-0.7-0.3-1.4-0.8-2.1-1.2c-1-0.5-1.3-0.6-2.3-1.1c-0.9-0.4-1.6-0.6-2.4-1
			c-0.9-0.4-1.8-0.6-2.5-0.9l2.9-0.9l0.1-0.2h-0.4v-0.3l-1.7,0.2l1-0.3l-1-0.1v-0.3l-0.2,0.2l-0.7,0l-0.7-0.1l0-0.7H8.4
			c0.1-0.7,1.6-0.3,0.9-1l0.9-0.4l-0.4,0.4l1.1,0l0.8,0.1l1.2,0.3l-3.5,0.1l0,0.2c1.2,0,1.1,0.3,1.7,0.3c0.3,0,0.3-0.2,0.4-0.4
			l0.9,0.8l1,0.1l0.6,0.4c0.9-0.2,0.5-0.4,1.1-0.4c0.6,0,3.3,0.9,3.7,1.2l-2.2-0.4c1.3,0.5,1.1,0.5,2.1,1.2c0.6,0.4,0.5,0.1,0.9,0.8
			c0.4,0.8,1.1,0.1,1.1,0.6c0,0.3-0.1,0.3-0.2,0.6c1.1,0.2,1.7,1,1.7,1.9l-0.1,1.1L21,60.2z"/>
		<path class="st25" d="M10.7,55.4c0.7,0.4,1.7,0.5,2.5,0.9c0.9,0.4,1.6,0.6,2.4,1c1,0.4,1.3,0.6,2.3,1.1c0.8,0.4,1.5,0.9,2.1,1.2
			l-0.7-0.1c-0.3,0.1-0.3,0.1-0.7,0.1c-0.3,0-1-0.4-1.3-0.5l-0.2,0.4l0-0.9l-0.7-0.3v0.8c0,0.4,0.5,0.3,0.6,1
			c-0.2-0.1-2-1.1-2.2-1.2c-0.6-0.6-0.6-1.3-1.9-1.4l-1.1-1.4l0.7,2.3l-0.9-0.1l0.2-1.3L11,58.2h-0.4c-0.2-0.4-0.7-0.5-0.7-0.9v-0.3
			c0-0.4,0.1-0.5,0.2-0.9H9.8l-0.2,1.1c-0.1,0.3,0.1,0.4,0.2,0.6c-0.1-0.1-1.8-1.2-1.8-1.3c-0.4-0.4-1-1.4-1-2H6.4l1.8,3.8l-0.2,0.1
			l-0.8-0.8l-0.4,0.4l-0.5-0.8l-0.4-0.1l0.8-1.1L6.5,56l-0.8,1.1H5.1v-0.4H4.7l-0.2-2.4H4.4v2.5c-1.4-0.3-1.3-1-2-1.8v-1.6
			L10.7,55.4z"/>
		<path class="st26" d="M20.1,59.6l0.9,0.6l0.1,0.5L20.3,61v0.3h0.4v0.3c-3.9,0.1-6,0.2-10-0.1c-2.1-0.2-2.9-0.2-4.7-0.6
			c-2-0.5-2.2-0.6-3.6-1.3V55c0.7,0.8,0.6,1.4,2,1.8v-2.5h0.2l0.2,2.4h0.4v0.4h0.6L6.5,56l0.2,0.1l-0.8,1.1l0.4,0.1l0.5,0.8l0.4-0.4
			l0.8,0.8l0.2-0.1l-1.8-3.8H7c0,0.6,0.6,1.6,1,2c0,0,1.7,1.2,1.8,1.3c-0.1-0.3-0.2-0.4-0.2-0.6l0.2-1.1h0.3c0,0.4-0.2,0.5-0.2,0.9
			v0.3c0,0.4,0.5,0.5,0.7,0.9H11l0.9-1.2l-0.2,1.3l0.9,0.1l-0.7-2.3l1.1,1.4c1.2,0.1,1.2,0.8,1.9,1.4c0.1,0.1,2,1.1,2.2,1.2
			c-0.1-0.7-0.6-0.6-0.6-1v-0.8l0.7,0.3l0,0.9l0.2-0.4c0.2,0.1,0.9,0.5,1.3,0.5c0.4,0,0.5,0,0.7-0.1L20.1,59.6z"/>
		<path class="st14" d="M16.2,62c-5.7,0-10.5-0.5-13.9-2v-0.5c1.4,0.7,1.6,0.9,3.6,1.3c1.8,0.4,2.6,0.4,4.7,0.6
			c4.1,0.3,6.1,0.2,10,0.1v-0.3h-0.4V61l0.9-0.3L21,60.2l1.2,0.6l0.1-1.1c0-0.9-0.5-1.7-1.7-1.9c0.1-0.3,0.2-0.3,0.2-0.6
			c0-0.5-0.7,0.1-1.1-0.6c-0.4-0.7-0.3-0.4-0.9-0.8c-1-0.7-0.8-0.7-2.1-1.2l2.2,0.4c-0.4-0.4-3.1-1.2-3.7-1.2
			c-0.6,0-0.3,0.2-1.1,0.4l-0.6-0.4l-1-0.1l-0.9-0.8c-0.1,0.2-0.1,0.4-0.4,0.4c-0.5,0-0.5-0.3-1.7-0.3l0-0.2l3.5-0.1l-1.2-0.3
			L11,52.2l-1.1,0l0.4-0.4l-0.9,0.4l-0.2,0.2l-0.3,0l-0.3-1l-0.8,0.2L7.5,51h2v-0.1H6.4c2.8-1.2,10.2,1.9,11.3,2.6
			c2.3,1.6,5.1,4,5.1,7.1C22.9,62.2,17.1,61.6,16.2,62z"/>
		<path class="st27" d="M189,32.4c0,0.4-1.4,2.5-4.2,6.1c-2.3,3-4.1,4.4-5.5,4.4c-0.9,0-1.6-0.4-2.2-1.1c-0.6-0.7-0.9-1.6-0.9-2.7
			c0-0.9,0.2-1.8,0.5-2.6c0.4-0.8,1.3-2.4,2.8-4.8c1.6-2.5,2.4-4.1,2.4-4.8c0-0.9-0.4-1.3-1.3-1.3c-2.8,0-7.2,5.7-13.1,17
			c-1-0.1-1.5-0.1-1.7-0.1c-0.7,0-1.3,0-1.9,0.1l4.6-7.7c2.6-4.4,3.9-7.2,3.9-8.3c0-0.6-0.2-0.9-0.7-0.9c-1,0-2.9,2.2-5.9,6.7
			c-0.2,0.3-0.3,0.4-0.4,0.4c-0.1,0-0.2-0.1-0.2-0.2c0-0.1,0.1-0.2,0.1-0.2l0.5-0.8c3-4.3,5-6.4,6-6.4c0.7,0,1.2,0.3,1.7,1
			c0.5,0.6,0.7,1.4,0.7,2.3c0,1.3-0.7,3.2-2.2,5.6c2.3-3.4,4.1-5.7,5.3-7c1.2-1.2,2.4-1.9,3.4-1.9c0.9,0,1.6,0.4,2.2,1.1
			c0.6,0.8,0.9,1.7,0.9,2.8c0,1.4-0.9,3.5-2.7,6.4c-1.8,2.9-2.7,4.8-2.7,5.6c0,0.9,0.4,1.3,1.2,1.3c1.7,0,4.7-3.3,9-9.9
			c0.1-0.2,0.2-0.3,0.3-0.3C188.9,32.2,189,32.3,189,32.4z M157.5,27.2c0-1-0.4-1.5-1.3-1.5c-1.8,0-4.1,1.9-7,5.6
			c-2.9,3.8-4.4,6.8-4.4,9.1c0,1.4,0.6,2,1.7,2c1.3,0,3.7-2.4,7-7.2C156.2,31.3,157.5,28.6,157.5,27.2z M165.5,32.4
			c0,0.4-1.4,2.5-4.3,6.1c-2.3,3-4.1,4.4-5.4,4.4c-0.9,0-1.6-0.4-2.2-1.1c-0.6-0.7-0.8-1.6-0.8-2.7c0-1.1,0.3-2.3,0.9-3.7
			c-1.9,2.9-3.4,4.9-4.5,5.9c-1,1-2,1.5-3,1.5c-1,0-1.9-0.5-2.6-1.4c-0.7-0.9-1-2.1-1-3.6c0-4,2.6-7.5,7.9-10.6
			c2.3-1.4,4.2-2.1,5.6-2.1c1.2,0,1.8,0.6,1.8,1.9c0,0.4-0.1,0.8-0.2,1.4l1.5-3c0.6,0.1,1.1,0.2,1.5,0.2c0.5,0,1.2-0.1,2-0.2
			l-5.2,9.2c-1.8,3.2-2.7,5.3-2.7,6.4c0,1,0.4,1.5,1.1,1.5c0.8,0,2-0.9,3.7-2.9c1.7-1.9,3.5-4.3,5.2-7.1c0.1-0.2,0.2-0.3,0.3-0.3
			C165.5,32.2,165.5,32.3,165.5,32.4z M128.1,46c-0.3,0.2-1.4,0.8-3.3,1.8c-8.9,4.7-13.3,9-13.3,12.7c0,1.6,0.8,2.3,2.5,2.3
			c2.1,0,4.1-1.2,6.2-3.6c2-2.4,4.6-6.6,7.6-12.6C127.7,46.6,127.9,46.4,128.1,46z M145,32.4c0,0.3-1.1,1.7-3.2,4.3
			c-2.4,2.8-5.5,5.3-9.3,7.6L131,47c-2.8,5.4-5.8,9.5-8.8,12.1c-3.2,2.7-5.9,4.1-8.3,4.1c-0.8,0-1.5-0.3-2-0.8
			c-0.5-0.5-0.8-1.2-0.8-2c0-4.2,4.5-8.5,13.5-13c0.7-0.4,1.9-0.9,3.3-1.7l0.4-0.3l5.1-9.8c-2,3-3.5,4.9-4.4,5.9
			c-0.9,0.9-1.8,1.4-2.8,1.4c-0.8,0-1.5-0.4-2.1-1.1c-0.6-0.7-0.9-1.6-0.9-2.6c0-1.2,0.7-3,2.1-5.6l4.5-8.1c0.4,0.1,1,0.1,1.5,0.1
			c0.5,0,1.2-0.1,2.1-0.2l-5.8,10c-1.6,2.8-2.5,4.7-2.5,5.6c0,0.9,0.4,1.4,1.2,1.4c2.1,0,5.3-4,9.7-12l2.7-4.9
			c0.4,0.1,1,0.1,1.6,0.1c0.5,0,1.2-0.1,1.9-0.2c-2.4,4.1-5.7,10.1-9.8,18.1c2.4-1.3,4.4-2.7,6-4.3c1.6-1.5,3.5-3.7,5.5-6.5
			c0.3-0.4,0.4-0.6,0.5-0.6C144.9,32.2,145,32.3,145,32.4z M126.5,32.4c0,0.1-0.1,0.2-0.3,0.5l-1.3,1.8c-3.7,5.5-6.4,8.2-8.4,8.2
			c-0.9,0-1.7-0.3-2.3-1c-0.6-0.7-0.9-1.6-0.9-2.6c0-1.2,0.7-3,2-5.5l4.6-8.3c0.6,0.1,1.1,0.2,1.4,0.2c0.5,0,1.3-0.1,2.2-0.2
			L117,37.1c-1,1.7-1.4,3-1.4,3.9c0,0.9,0.5,1.4,1.4,1.4c1.7,0,4.8-3.3,9.1-9.9c0.1-0.2,0.2-0.3,0.3-0.3
			C126.5,32.2,126.5,32.3,126.5,32.4z M126.1,19.4c0,0.7-0.3,1.4-0.9,2c-0.6,0.6-1.2,0.9-1.9,0.9c-0.9,0-1.3-0.5-1.3-1.4
			c0-0.7,0.3-1.3,0.9-2c0.6-0.6,1.2-0.9,1.9-0.9C125.7,18.1,126.1,18.5,126.1,19.4z M128.2,9.6c0,1.1-0.1,2.3-0.4,3.6
			c-0.3,1.3-0.5,1.9-0.8,1.9c-0.2,0-0.3-0.1-0.3-0.3c0-0.1,0-0.2,0.1-0.3c0.5-1.4,0.8-3,0.8-4.7c0-2.6-0.7-4.7-2.2-6.3
			c-1.5-1.6-3.4-2.4-5.8-2.4c-3.2,0-6.5,1.1-9.9,3.4c2.7,2.2,4.1,4.7,4.1,7.6c0,4.7-2.9,7.4-8.8,8.3c4.8,1.8,7.3,5.2,7.3,10
			c0,3.6-1.4,6.7-4.3,9.4c-2.9,2.7-6.2,4-10,4c-1.8,0-3.3-0.5-4.4-1.5c-1.1-1-1.6-2.4-1.6-4.1c0-2.7,1.1-5.3,3.4-7.9
			c2.3-2.6,4.6-3.9,6.9-3.9c1.3,0,2.3,0.4,3.2,1.3c0.8,0.9,1.2,2,1.2,3.3c0,0.8-0.2,1.8-0.7,3c-0.5,1.2-0.9,1.8-1.1,1.8
			c-0.2,0-0.3-0.1-0.3-0.2c0-0.1,0-0.2,0.1-0.4c1-1.6,1.5-3,1.5-4.3c0-1.2-0.4-2.1-1.1-2.9c-0.7-0.7-1.7-1.1-2.8-1.1
			c-2.2,0-4.4,1.2-6.5,3.7c-2.1,2.5-3.2,5-3.2,7.6c0,1.4,0.4,2.5,1.3,3.4c0.9,0.9,2,1.4,3.3,1.4c3,0,5.7-1.5,8.2-4.6
			c2.5-3.1,3.7-6.5,3.7-10.2c0-3.5-1.6-6-4.7-7.6l-1.7,0.2c-0.5,0.1-0.9,0.1-1.4,0.1c-1.5,0-2.2-0.3-2.2-0.8c0-0.4,0.6-0.6,1.8-0.6
			c0.9,0,2,0.2,3.5,0.6c2-0.7,3.6-1.8,4.8-3.5c1.2-1.7,1.8-3.6,1.8-5.8c0-2.1-0.7-4-2.3-5.7c-4.3,3.5-8.3,9.5-12,17.8
			c-2.3,5.2-4.4,8.9-6.4,11.2c-1.9,2.2-4.5,4.3-8,6.1c-4.1,2.1-7.7,3.2-10.9,3.2c-2.6,0-4.8-0.6-6.5-1.9c-1.7-1.3-2.6-2.9-2.6-4.8
			c0-1.1,0.3-2,0.9-2.8c0.6-0.8,1.3-1.2,2.1-1.2c1.2,0,1.8,0.7,1.8,2.1c0,0.7-0.2,1.3-0.6,1.8c-0.4,0.5-0.9,0.7-1.5,0.7
			c-1,0-1.5-0.6-1.5-1.7c0-0.5,0-0.7-0.1-0.7c-0.3,0-0.5,0.5-0.5,1.7c0,1.7,0.8,3.2,2.4,4.3c1.6,1.1,3.6,1.7,6,1.7
			c4.3,0,8.1-1.7,11.6-5.1c1.5-1.4,2.8-3,3.9-4.6c1.1-1.6,3.6-5.6,7.6-12.2c1.9-3.1,4.2-6.3,6.9-9.5c2.7-3.2,5-5.5,6.8-6.9
			c-3.1-2.8-7.5-4.2-13.4-4.2c-8.2,0-15.4,3.2-21.4,9.5c-5,5.2-7.5,10.1-7.5,14.7c0,2.3,0.7,4.2,2.1,5.6c1.4,1.4,3.3,2.1,5.7,2.1
			c3.9,0,8-2,12.1-6c4.2-4,6.3-7.9,6.3-11.7c0-3-1.4-4.5-4.3-4.5c-2.9,0-6,1.7-9.3,5.2c-3.3,3.5-5,6.7-5,9.7c0,0.8,0.2,1.4,0.7,1.9
			c0.5,0.5,1,0.8,1.6,0.8c0.3,0.1,0.5,0.1,0.5,0.2c0,0.2-0.2,0.3-0.6,0.3c-0.9,0-1.7-0.5-2.4-1.4c-0.6-0.9-1-2-1-3.3
			c0-3.2,1.7-6.4,5-9.5c3.3-3.1,6.8-4.6,10.2-4.6c3.3,0,5,1.7,5,5c0,4-2.1,8.1-6.4,12.3c-4.3,4.1-8.5,6.2-12.6,6.2
			c-2.7,0-4.9-0.9-6.5-2.6c-1.6-1.7-2.4-4.1-2.4-7c0-5.9,3.1-11.3,9.3-16.2C80.4,2.4,87.2,0,94.8,0c5.7,0,10.5,1.4,14.4,4.1
			c3.6-2.4,7-3.6,10.3-3.6c2.6,0,4.7,0.8,6.3,2.5C127.4,4.7,128.2,6.9,128.2,9.6z"/>
		<path class="st27" d="M107.3,55.6h-4.4V57h4.2c0.7,0,1.1,0.1,1.3,0.3c0.2,0.2,0.3,0.6,0.3,1.2v0.9c0,0.6-0.1,1-0.3,1.2
			c-0.2,0.2-0.7,0.3-1.3,0.3h-4.2c-0.7,0-1.1-0.1-1.3-0.3c-0.2-0.2-0.3-0.6-0.3-1.2v-0.2l1.4-0.3v0.8h4.7v-1.5h-4.1
			c-0.7,0-1.1-0.1-1.3-0.3c-0.2-0.2-0.3-0.6-0.3-1.2V56c0-0.6,0.1-1,0.3-1.2c0.2-0.2,0.7-0.3,1.3-0.3h3.8c0.6,0,1.1,0.1,1.3,0.3
			c0.2,0.2,0.4,0.6,0.4,1.1V56l-1.3,0.3L107.3,55.6L107.3,55.6z M96.3,55.6v5.2h-1.6v-5.2h-3.1v-1.1h7.7v1.1H96.3z M88.4,55.7h-4.2
			v4h4.2v-1.4l1.6,0.3v0.8c0,0.6-0.1,1-0.3,1.2c-0.2,0.2-0.7,0.3-1.3,0.3h-4c-0.6,0-1.1-0.1-1.3-0.3c-0.2-0.2-0.3-0.6-0.3-1.2V56
			c0-0.6,0.1-1,0.3-1.2c0.2-0.2,0.7-0.3,1.3-0.3h4c0.7,0,1.1,0.1,1.3,0.3c0.2,0.2,0.3,0.6,0.3,1.2v0.6l-1.6,0.2L88.4,55.7L88.4,55.7
			z M73.9,54.5v5.2h4.5v-5.2h1.6v4.9c0,0.6-0.1,1-0.3,1.2c-0.2,0.2-0.7,0.3-1.3,0.3H74c-0.6,0-1.1-0.1-1.3-0.3
			c-0.2-0.2-0.3-0.6-0.3-1.2v-4.9L73.9,54.5L73.9,54.5z M61.9,60.9v-6.4h4.3c1.2,0,2.2,0.3,2.8,0.8c0.7,0.5,1,1.3,1,2.3
			c0,1.1-0.3,1.9-1,2.4c-0.7,0.5-1.8,0.8-3.2,0.8L61.9,60.9L61.9,60.9z M63.4,59.7h2c1.1,0,1.9-0.2,2.3-0.5c0.4-0.3,0.7-0.9,0.7-1.6
			c0-0.7-0.2-1.1-0.5-1.5c-0.4-0.3-0.9-0.5-1.7-0.5h-2.7V59.7z M50.9,56c0-0.6,0.1-1,0.3-1.2c0.2-0.2,0.7-0.3,1.3-0.3h4.9
			c0.7,0,1.1,0.1,1.3,0.3c0.2,0.2,0.3,0.6,0.3,1.2v3.4c0,0.6-0.1,1-0.3,1.2c-0.2,0.2-0.7,0.3-1.3,0.3h-4.9c-0.7,0-1.1-0.1-1.3-0.3
			c-0.2-0.2-0.3-0.6-0.3-1.2V56L50.9,56z M52.5,59.6h5.2v-4h-5.2V59.6z M41.2,60.9v-6.4H47c0.5,0,0.9,0.1,1.1,0.3s0.4,0.5,0.4,0.9
			v1.5c0,0.4-0.1,0.7-0.4,0.9s-0.6,0.3-1.1,0.3h-0.9l3,2.4h-2.2l-2.7-2.4h-1.5v2.4H41.2L41.2,60.9z M46.3,55.6h-3.6v1.8h3.6
			c0.3,0,0.5,0,0.6-0.1C47,57.1,47,57,47,56.8v-0.7c0-0.2,0-0.3-0.2-0.4C46.8,55.6,46.6,55.6,46.3,55.6z M36.8,55.6h-3.6v1.7h3.6
			c0.3,0,0.5,0,0.6-0.1c0.1-0.1,0.2-0.2,0.2-0.4v-0.7c0-0.2,0-0.3-0.2-0.4C37.3,55.6,37.1,55.6,36.8,55.6z M31.7,60.9v-6.4h5.8
			c0.5,0,0.9,0.1,1.1,0.3c0.2,0.2,0.3,0.5,0.3,0.9v1.4c0,0.4-0.1,0.8-0.4,0.9c-0.2,0.2-0.6,0.3-1.1,0.3h-4.2v2.5H31.7L31.7,60.9z"/>
		<path class="st28" d="M64.8,23.1v2l0.7-1l0.1-1L64.8,23.1L64.8,23.1z M187.6,34.6v22.5c0,4.1-3.4,7.5-7.5,7.5h-22.5H26.2H8.9
			c-4.1,0-7.5-3.4-7.5-7.5V22.3V8.9c0-0.1,0-0.1,0-0.2s0-0.1,0-0.2c0-0.1,0-0.1,0-0.2c0-0.1,0-0.1,0-0.2c0-0.1,0-0.1,0-0.2
			c0-0.1,0-0.1,0-0.2c0-0.1,0-0.1,0-0.2c0-0.1,0-0.1,0-0.2c0-0.1,0-0.1,0-0.2c0-0.1,0-0.1,0-0.2c0-0.1,0-0.1,0-0.2
			c0-0.1,0-0.1,0-0.2c0-0.1,0-0.1,0.1-0.2c0-0.1,0-0.1,0.1-0.2c0-0.1,0-0.1,0.1-0.2C1.9,6.1,2,6.1,2,6c0-0.1,0-0.1,0.1-0.2
			c0-0.1,0-0.1,0.1-0.2c0-0.1,0.1-0.1,0.1-0.2c0-0.1,0.1-0.1,0.1-0.2c0-0.1,0.1-0.1,0.1-0.2c1.3-2.3,3.8-3.8,6.5-3.8h21.6h56.3
			L94.5,0H30.4H7.9C5,0,2.4,1.6,1,4C1,4,1,4.1,1,4.1c0,0.1-0.1,0.1-0.1,0.2c0,0.1-0.1,0.1-0.1,0.2c0,0.1-0.1,0.1-0.1,0.2
			c0,0.1,0,0.1-0.1,0.2c0,0.1,0,0.1-0.1,0.2c0,0.1,0,0.1-0.1,0.2c0,0.1,0,0.1-0.1,0.2c0,0.1,0,0.1-0.1,0.2c0,0.1,0,0.1-0.1,0.2
			c0,0.1,0,0.1,0,0.2c0,0.1,0,0.1,0,0.2c0,0.1,0,0.1,0,0.2c0,0.1,0,0.1,0,0.2c0,0.1,0,0.1,0,0.2c0,0.1,0,0.1,0,0.2C0.1,6.9,0,7,0,7
			c0,0.1,0,0.1,0,0.2c0,0.1,0,0.1,0,0.2c0,0.1,0,0.1,0,0.2c0,0.1,0,0.1,0,0.2v14v36.3C0,62.5,3.5,66,7.9,66H28h127.9h25.2
			c4.3,0,7.9-3.5,7.9-7.8V32.6L187.6,34.6z"/>
	</g>
</g>
</svg>
