<svg width="154" height="32" viewBox="0 0 154 32" fill="none" xmlns="http://www.w3.org/2000/svg">
<g clip-path="url(#clip0_109_1937)">
<path d="M11.3953 11.7821L8.04651 18.6608H18.3256L14.8837 11.6427C14.5814 11.0152 14.2791 10.411 14 9.83001C13.7209 9.24904 13.4419 8.62159 13.1395 7.94766C12.8605 8.64483 12.5581 9.29552 12.2791 9.92297C12 10.5272 11.6977 11.1546 11.3953 11.7821ZM0 27.4451L11.2093 4.5083H15.3488L26.5116 27.4451H22.6047L19.9767 22.0769H6.37209L3.74419 27.4451H0Z" fill="#B78E5D"/>
<path d="M46.9535 7.92442H39.0465V24.0522H46.9535C49.1395 24.0522 50.907 23.6804 52.2791 22.96C53.6279 22.2164 54.6279 21.2403 55.2791 20.0319C55.9302 18.8002 56.2558 17.4524 56.2558 15.9883C56.2558 14.5475 55.9302 13.2229 55.2791 11.9912C54.6279 10.7596 53.6279 9.78354 52.2791 9.03989C50.907 8.29625 49.1395 7.92442 46.9535 7.92442ZM35.4884 27.4451V4.5083H47.093C49.186 4.5083 51.0465 4.81041 52.6512 5.41462C54.2558 6.01883 55.6047 6.85543 56.6977 7.92442C57.7907 8.99341 58.6046 10.2018 59.1628 11.5729C59.6977 12.944 59.9767 14.4081 59.9767 15.9651C59.9767 18.0566 59.4884 19.9854 58.5116 21.7283C57.5349 23.4713 56.093 24.8424 54.186 25.8881C52.2791 26.9339 49.907 27.4451 47.093 27.4451H35.4884Z" fill="#B78E5D"/>
<path d="M108.419 15.5933H117.302C118.14 15.5933 118.907 15.4074 119.628 15.0355C120.349 14.6637 120.907 14.1757 121.326 13.5715C121.744 12.9673 121.953 12.2933 121.953 11.5729C121.953 10.899 121.744 10.2716 121.326 9.73706C120.907 9.20256 120.326 8.76102 119.628 8.43568C118.907 8.11033 118.14 7.94766 117.302 7.94766H108.419V15.5933ZM104.884 27.4451V4.5083H118.302C119.651 4.5083 120.907 4.81041 122.023 5.43786C123.14 6.06531 124.047 6.90191 124.721 7.9709C125.395 9.03989 125.744 10.2251 125.744 11.5497C125.744 12.6419 125.512 13.6412 125.047 14.5708C124.581 15.5003 123.93 16.3137 123.116 16.9876C122.302 17.6848 121.395 18.196 120.372 18.5446L127.093 27.4684L122.674 27.4451L116.302 18.9862H108.419V27.4451H104.884Z" fill="#B78E5D"/>
<path d="M134.93 27.4451V4.5083H154V7.92442H138.488V13.9898H152.186V17.3827H138.488V24.0522H154V27.4451H134.93Z" fill="#B78E5D"/>
<path d="M93.1628 16.5461H83.6279L86.3023 19.2186H93.1628H93.186C94.5814 19.2186 95.6977 20.3341 95.6977 21.7284C95.6977 22.9136 94.8837 23.9129 93.7674 24.1685V26.8642C96.3256 26.5389 98.2791 24.3544 98.2791 21.7284C98.2791 18.87 96 16.5694 93.1628 16.5461ZM86.0232 7.78504H90.1163V5.11256H86.0232V7.78504ZM95.6977 10.2948C95.6977 11.6892 94.5814 12.8046 93.186 12.8046H93.1628H86.3023L83.6279 15.4771H93.1628C96 15.4539 98.2791 13.13 98.2791 10.2948C98.2791 7.66885 96.3023 5.48439 93.7674 5.15904V7.85476C94.8605 8.11038 95.6977 9.10966 95.6977 10.2948ZM74.5814 26.8874H78.6744V24.215H74.5814V26.8874ZM69 21.7052C69 20.3108 70.1163 19.1954 71.5116 19.1954H71.5349H78.3953L81.0698 16.5229H71.5349C68.6977 16.5461 66.4186 18.87 66.4186 21.7052C66.4186 24.3312 68.3953 26.5156 70.9302 26.841V24.1452C69.8372 23.8896 69 22.8903 69 21.7052ZM71.5349 15.4771H81.0698L78.3953 12.8046H71.5349H71.5116C70.1163 12.8046 69 11.6892 69 10.2948C69 9.10966 69.8139 8.11038 70.9302 7.85476V5.15904C68.3721 5.48439 66.4186 7.66885 66.4186 10.2948C66.4186 13.13 68.6977 15.4306 71.5349 15.4771ZM81.8139 5.11256C81.7907 2.27741 79.4651 0 76.6279 0C73.7907 0 71.4884 2.27741 71.4419 5.11256V12.2934H74.1163V5.11256V5.08932C74.1163 4.7175 74.2093 4.36892 74.3488 4.06681C74.7442 3.20697 75.6279 2.60276 76.6279 2.60276C78.0233 2.60276 79.1395 3.71823 79.1395 5.11256V5.1358V12.061L81.8139 14.7335V5.11256ZM74.6279 7.78504H78.6512V5.11256H74.6279V7.78504ZM82.8837 5.11256C82.907 2.27741 85.2326 0 88.0698 0C90.907 0 93.2093 2.27741 93.2558 5.11256V12.2934H90.5814V5.11256V5.08932C90.5814 4.7175 90.4884 4.36892 90.3488 4.06681C89.9535 3.20697 89.0698 2.60276 88.0698 2.60276C86.6744 2.60276 85.5581 3.71823 85.5581 5.11256V5.1358V12.061L82.8837 14.7335V5.11256ZM81.8139 26.8874C81.7907 29.7226 79.4651 32 76.6279 32C73.7907 32 71.4884 29.7226 71.4419 26.8874V19.7066H74.1163V26.8874V26.9107C74.1163 27.2825 74.2093 27.6311 74.3488 27.9332C74.7442 28.793 75.6279 29.3972 76.6279 29.3972C78.0233 29.3972 79.1395 28.2818 79.1395 26.8874V26.8642V19.9855L81.8139 17.313V26.8874ZM82.8837 26.8874C82.907 29.7226 85.2326 32 88.0698 32C90.907 32 93.2093 29.7226 93.2558 26.8874V19.7066H90.5814V26.8874V26.9107C90.5814 27.2825 90.4884 27.6311 90.3488 27.9332C89.9535 28.793 89.0698 29.3972 88.0698 29.3972C86.6744 29.3972 85.5581 28.2818 85.5581 26.8874V26.8642V19.9855L82.8837 17.313V26.8874ZM86.0232 26.8874H90.1163V24.215H86.0232V26.8874Z" fill="#BE9157"/>
</g>
<defs>
<clipPath id="clip0_109_1937">
<rect width="154" height="32" fill="white"/>
</clipPath>
</defs>
</svg>
