<svg width="68" height="68" viewBox="0 0 68 68" fill="none" xmlns="http://www.w3.org/2000/svg">
<rect width="68" height="68" rx="34" fill="#46C7F4"/>
<path d="M33.5 48.3125C36.5312 47.375 39.0625 45.5238 41.0937 42.7588C43.125 39.9938 44.3125 36.9075 44.6563 33.5H33.5V18.77L23.0075 22.6644C22.7662 22.7607 22.58 22.905 22.4488 23.0975C22.3162 23.29 22.25 23.5063 22.25 23.7463V32.6207C22.25 32.8632 22.2813 33.1563 22.3438 33.5H33.5V48.3125ZM33.5 50.0788C33.33 50.0788 33.1506 50.0632 32.9619 50.0319C32.7731 50.0007 32.5981 49.9538 32.4369 49.8913C28.7456 48.485 25.8125 46.1 23.6375 42.7363C21.4625 39.3725 20.375 35.7313 20.375 31.8125V23.7819C20.375 23.1444 20.5594 22.5675 20.9281 22.0513C21.2969 21.535 21.7688 21.16 22.3438 20.9263L32.4406 17.1763C32.8056 17.0438 33.1587 16.9775 33.5 16.9775C33.8413 16.9775 34.195 17.0438 34.5612 17.1763L44.6563 20.9263C45.2313 21.16 45.7031 21.535 46.0719 22.0513C46.4406 22.5675 46.625 23.1444 46.625 23.7819V31.8125C46.625 35.7313 45.5375 39.3725 43.3625 42.7363C41.1875 46.1 38.2544 48.485 34.5631 49.8913C34.4006 49.9538 34.2256 50.0007 34.0381 50.0319C33.8506 50.0632 33.6713 50.0788 33.5 50.0788Z" fill="black" fill-opacity="0.8"/>
</svg>
